<svg width="452" height="159" viewBox="0 0 452 159" fill="none" xmlns="http://www.w3.org/2000/svg">
<g clip-path="url(#clip0_28_500)">
<path d="M365.814 76.5873C367.626 78.3243 369.373 80.0025 371.168 81.722C368.443 84.3996 365.294 86.1563 361.678 87.0816C356.677 88.3603 351.703 88.2032 346.809 86.6102C340.639 84.6004 336.499 80.4236 334.424 74.2807C332.289 67.9566 332.513 61.6762 335.399 55.6228C338.431 49.2529 343.581 45.6173 350.449 44.3778C357.544 43.0968 363.958 44.5502 369.53 49.2791C369.884 49.5802 370.219 49.9075 370.416 50.0908C368.826 51.865 367.285 53.5824 365.672 55.3805C361.391 51.6293 356.603 50.6255 351.342 51.7755C348.15 52.4716 345.527 54.1323 343.571 56.7881C339.339 62.5338 339.831 71.4067 344.442 76.4804C348.476 80.9168 358.729 82.9572 365.814 76.5873Z" fill="url(#paint0_linear_28_500)"/>
<path d="M387.072 72.1814C388.515 72.8535 388.589 74.2479 389.013 75.4503C390.692 80.2098 393.609 83.9763 397.942 86.5971C398.086 86.6822 398.22 86.7804 398.549 86.9986C395.113 86.9986 391.899 87.1165 388.702 86.931C387.689 86.8721 386.587 86.1672 385.761 85.4733C383.186 83.3129 381.804 80.321 380.589 77.2725C379.92 75.59 379.461 73.8246 378.816 72.1312C378.618 71.614 378.212 71.0532 377.744 70.7848C374.961 69.1852 372.131 67.6642 369.041 65.9643C369.682 65.9359 370.019 65.9097 370.355 65.9053C374.88 65.8704 379.409 65.9708 383.925 65.77C388.026 65.5889 390.464 62.7695 390.336 58.7848C390.21 54.8306 387.554 52.2141 383.484 52.1552C379.722 52.1006 375.956 52.1443 371.979 52.1443C372.611 51.4787 373.115 50.9462 373.839 50.1847C371.694 48.3778 369.595 46.6102 367.511 44.8557C368.939 44.8557 370.445 44.8426 371.951 44.8579C376.293 44.9015 380.641 44.8448 384.979 45.0346C390.751 45.2878 395.389 48.7029 397.082 53.7744C398.351 57.578 398.164 61.3772 396.669 65.0739C394.952 69.327 391.56 71.3936 387.072 72.1814Z" fill="url(#paint1_linear_28_500)"/>
<path fill-rule="evenodd" clip-rule="evenodd" d="M394.242 44.8306C393.695 44.8333 393.149 44.836 392.603 44.836C397.458 47.9981 399.759 52.4847 400.133 58.1061C400.159 58.5011 400.407 58.9222 400.65 59.2583C404.162 64.1115 407.685 68.9539 411.214 73.794C412.103 75.0161 413.061 75.0226 413.963 73.818C416.691 70.1764 419.416 66.5328 422.14 62.8893C423.502 61.0678 424.864 59.2464 426.227 57.4252C426.364 57.2431 426.507 57.0642 426.7 56.8236C426.821 56.6721 426.962 56.4962 427.133 56.2796C427.149 56.5391 427.165 56.7551 427.178 56.9428C427.204 57.2887 427.222 57.5385 427.222 57.7875C427.227 60.7533 427.227 63.7205 427.227 66.6879C427.226 67.4301 427.226 68.1724 427.226 68.9146C427.226 70.3239 427.227 71.7333 427.228 73.1426C427.231 77.3699 427.234 81.5973 427.211 85.8246C427.207 86.6822 427.387 87.0641 428.343 87.027C430.223 86.955 432.11 86.979 433.992 87.0204C434.726 87.0379 435.006 86.8415 435.004 86.0494C434.983 72.6309 434.983 59.2125 435.004 45.794C435.004 45.0019 434.724 44.812 433.992 44.8229C431.675 44.86 429.356 44.8622 427.039 44.8229C426.318 44.812 425.855 45.0172 425.418 45.626C422.097 50.2512 418.751 54.8593 415.405 59.4674C414.784 60.3229 414.163 61.1784 413.542 62.0341C413.397 62.234 413.243 62.4266 413.07 62.6418C412.976 62.7602 412.875 62.8855 412.768 63.0226C412.663 62.8846 412.567 62.7586 412.476 62.6405C412.289 62.3965 412.128 62.1862 411.973 61.973C410.977 60.6012 409.982 59.229 408.988 57.8568C406.041 53.7916 403.094 49.7267 400.131 45.674C399.863 45.3118 399.383 44.8884 398.988 44.8731C397.408 44.8147 395.824 44.8227 394.242 44.8306ZM398.246 84.1726V66.8611C396.491 70.2327 393.985 72.3101 390.692 73.4689C392.005 77.9621 394.341 81.5125 398.246 84.1726Z" fill="url(#paint2_linear_28_500)"/>
</g>
<path d="M354.087 19.1934C354.611 17.7341 356.284 16.9952 357.791 17.5584C359.306 18.1207 360.006 19.6435 359.445 21.1441C358.869 22.6895 357.26 23.5087 355.817 22.9861C354.361 22.4591 353.549 20.6805 354.087 19.1934Z" fill="url(#paint3_linear_28_500)"/>
<path d="M365.52 22.7545C365.02 24.1939 363.532 24.9518 362.164 24.4701C360.793 23.9841 360.088 22.4559 360.585 21.0336C361.041 19.7189 362.504 19.0282 363.86 19.4871C365.295 19.971 366.002 21.3631 365.52 22.7545Z" fill="url(#paint4_linear_28_500)"/>
<path d="M351.216 17.441C352.608 17.9456 353.211 19.2503 352.711 20.6821C352.209 22.1172 350.779 22.8739 349.445 22.4046C348.099 21.9307 347.312 20.3122 347.783 18.9817C348.277 17.5905 349.773 16.9185 351.216 17.441Z" fill="url(#paint5_linear_28_500)"/>
<path d="M369.55 22.7435C370.801 23.1944 371.498 24.5649 371.09 25.7667C370.676 26.9844 369.163 27.7333 367.956 27.3196C366.732 26.9003 366.103 25.4494 366.577 24.1447C367.01 22.9412 368.352 22.3117 369.55 22.7435Z" fill="url(#paint6_linear_28_500)"/>
<path d="M341.555 20.136C342.009 18.846 343.423 18.2059 344.765 18.6818C345.895 19.0825 346.468 20.391 346.041 21.6043C345.554 22.9871 344.385 23.631 343.119 23.211C341.832 22.7831 341.117 21.3813 341.555 20.136Z" fill="url(#paint7_linear_28_500)"/>
<path d="M338.498 21.2624C339.658 21.6668 340.165 22.8295 339.716 24.0671C339.311 25.1799 338.211 25.7188 337.099 25.3463C335.923 24.9545 335.304 23.7268 335.709 22.5957C336.117 21.455 337.354 20.8604 338.498 21.2624Z" fill="url(#paint8_linear_28_500)"/>
<path d="M375.755 29.9737C375.347 31.1037 374.093 31.667 372.944 31.2381C371.856 30.8305 371.329 29.6246 371.742 28.4787C372.152 27.3316 373.319 26.7766 374.444 27.1901C375.62 27.6216 376.177 28.8054 375.755 29.9737Z" fill="url(#paint9_linear_28_500)"/>
<path d="M332.926 25.1084C333.95 25.4646 334.469 26.5631 334.103 27.5962C333.756 28.5748 332.69 29.0682 331.676 28.723C330.668 28.3799 330.13 27.325 330.462 26.3375C330.811 25.3053 331.907 24.7545 332.926 25.1084Z" fill="url(#paint10_linear_28_500)"/>
<path d="M378.323 32.5908C379.32 32.9443 379.871 34.0831 379.53 35.0854C379.194 36.0718 378.027 36.5904 377.008 36.2075C376.011 35.8325 375.557 34.8036 375.935 33.7675C376.312 32.7346 377.319 32.235 378.323 32.5908Z" fill="url(#paint11_linear_28_500)"/>
<path d="M327.127 33.1803C326.264 32.8707 325.823 31.9545 326.127 31.0974C326.445 30.2019 327.409 29.7122 328.267 30.0164C329.161 30.3297 329.59 31.2596 329.268 32.1787C328.935 33.1265 328.088 33.5247 327.127 33.1803Z" fill="url(#paint12_linear_28_500)"/>
<path d="M382.076 40.867C381.778 41.7768 380.839 42.225 379.923 41.9038C379.053 41.5952 378.61 40.7036 378.891 39.8311C379.178 38.9394 380.162 38.4169 381.019 38.7028C381.892 38.9944 382.371 39.9744 382.076 40.867Z" fill="url(#paint13_linear_28_500)"/>
<path d="M322.894 36.7087C323.171 35.9252 324.015 35.5044 324.741 35.7904C325.454 36.0687 325.869 37.0005 325.594 37.7058C325.32 38.408 324.506 38.7928 323.777 38.5593C323.002 38.3132 322.615 37.503 322.894 36.7087Z" fill="url(#paint14_linear_28_500)"/>
<path d="M321.607 44.5264C320.9 44.2107 320.637 43.6855 320.88 42.9689C321.128 42.2395 321.692 42.0072 322.394 42.206C323.02 42.3811 323.36 43.1316 323.119 43.7485C322.841 44.4635 322.294 44.6585 321.607 44.5264Z" fill="url(#paint15_linear_28_500)"/>
<path d="M330.344 22.8534C329.688 24.7235 327.762 25.603 325.831 24.9077C323.98 24.2403 323.057 22.3216 323.71 20.4901C324.388 18.5883 326.437 17.522 328.251 18.133C330.107 18.7585 331.04 20.8607 330.344 22.8534Z" fill="url(#paint16_linear_28_500)"/>
<path d="M320.361 30.5758C318.647 29.9749 317.816 28.2871 318.386 26.5701C318.982 24.7795 320.93 23.7673 322.593 24.3824C324.219 24.9839 325.145 26.9649 324.584 28.6456C324.018 30.3316 322.13 31.1957 320.361 30.5758Z" fill="url(#paint17_linear_28_500)"/>
<path d="M332.635 19.9791C330.895 19.3189 330.07 17.5679 330.695 15.8743C331.348 14.1146 333.269 13.2082 334.983 13.8519C336.636 14.4743 337.431 16.3834 336.768 18.1429C336.111 19.8939 334.399 20.6515 332.635 19.9791Z" fill="url(#paint18_linear_28_500)"/>
<path d="M316.229 37.3157C314.69 36.7734 313.928 35.1424 314.486 33.5796C315.053 31.9912 316.799 31.0948 318.255 31.6433C319.783 32.2176 320.65 34.0732 320.099 35.5772C319.552 37.0683 317.781 37.8625 316.229 37.3157Z" fill="url(#paint19_linear_28_500)"/>
<path d="M343.992 14.7821C343.44 16.4297 341.895 17.2392 340.359 16.6873C338.766 16.1152 337.924 14.4487 338.452 12.9111C338.993 11.3351 340.649 10.5038 342.228 11.0135C343.866 11.5402 344.574 13.0513 343.992 14.7821Z" fill="url(#paint20_linear_28_500)"/>
<path d="M350.167 9.8789C351.556 10.3534 352.266 11.8077 351.796 13.2144C351.314 14.653 349.788 15.4585 348.427 14.9866C347.018 14.4978 346.201 12.8434 346.696 11.478C347.184 10.1209 348.756 9.39654 350.167 9.8789Z" fill="url(#paint21_linear_28_500)"/>
<path d="M315.458 39.6706C316.904 40.1654 317.691 41.7335 317.192 43.13C316.705 44.5052 315.05 45.2937 313.676 44.8066C312.34 44.3329 311.639 42.7522 312.142 41.3354C312.628 39.9634 314.12 39.2141 315.458 39.6706Z" fill="url(#paint22_linear_28_500)"/>
<path d="M356.579 14.9897C355.321 14.5473 354.642 13.1363 355.081 11.8772C355.502 10.6692 356.88 10.0307 358.138 10.4624C359.391 10.8961 360.048 12.2488 359.607 13.4822C359.165 14.7188 357.777 15.4076 356.579 14.9897Z" fill="url(#paint23_linear_28_500)"/>
<path d="M312.854 52.6199C311.632 52.1791 311.009 50.7304 311.489 49.4569C311.952 48.2314 313.212 47.6628 314.459 48.1158C315.731 48.5777 316.397 49.9048 315.968 51.1138C315.531 52.3665 314.087 53.064 312.854 52.6199Z" fill="url(#paint24_linear_28_500)"/>
<path d="M313.715 60.4609C312.625 60.0598 312.075 58.8278 312.485 57.7097C312.879 56.6395 314.075 56.1021 315.152 56.5095C316.252 56.9247 316.804 58.071 316.423 59.1456C316.026 60.2543 314.79 60.8565 313.715 60.4609Z" fill="url(#paint25_linear_28_500)"/>
<path d="M363.2 14.0325C363.581 12.9075 364.661 12.365 365.8 12.7294C366.93 13.0904 367.516 14.2019 367.16 15.3037C366.793 16.4514 365.611 17.0909 364.513 16.7411C363.419 16.3892 362.82 15.1543 363.2 14.0325Z" fill="url(#paint26_linear_28_500)"/>
<path d="M371.743 20.0574C370.796 19.711 370.33 18.6851 370.681 17.7151C371.006 16.8186 372.049 16.3281 372.946 16.6533C373.925 17.0076 374.408 18.007 374.065 18.9654C373.723 19.9173 372.689 20.4037 371.743 20.0574Z" fill="url(#paint27_linear_28_500)"/>
<path d="M316.263 67.9171C315.308 67.5567 314.839 66.5372 315.189 65.5811C315.533 64.641 316.572 64.1922 317.541 64.5646C318.459 64.9191 318.901 65.8932 318.564 66.8248C318.212 67.798 317.208 68.2774 316.263 67.9171Z" fill="url(#paint28_linear_28_500)"/>
<path d="M378.066 24.874C377.326 24.5899 376.953 23.7413 377.227 22.9706C377.507 22.1806 378.41 21.7522 379.176 22.0452C379.935 22.3361 380.344 23.2624 380.058 24.0287C379.774 24.7811 378.847 25.1727 378.066 24.874Z" fill="url(#paint29_linear_28_500)"/>
<path d="M322.324 73.7642C322.039 74.5884 321.189 75.0069 320.399 74.7124C319.606 74.4168 319.193 73.5322 319.486 72.7542C319.783 71.9666 320.658 71.5817 321.459 71.8839C322.233 72.1728 322.599 72.9688 322.324 73.7642Z" fill="url(#paint30_linear_28_500)"/>
<path d="M327.484 79.5509C327.186 80.4135 326.659 80.6731 325.946 80.4238C325.244 80.1821 324.935 79.6551 325.193 78.9184C325.444 78.2008 326.002 77.9127 326.707 78.1448C327.418 78.3823 327.642 78.9445 327.484 79.5509Z" fill="url(#paint31_linear_28_500)"/>
<path d="M383.331 30.9679C382.628 30.6791 382.317 30.1692 382.558 29.4483C382.794 28.7434 383.322 28.4301 384.05 28.6776C384.767 28.9173 385.044 29.4621 384.815 30.1799C384.588 30.8989 384.047 31.1391 383.331 30.9679Z" fill="url(#paint32_linear_28_500)"/>
<path d="M299.585 49.585C300.421 47.1957 302.783 46.0422 305.143 46.872C307.526 47.7096 308.821 50.2175 308.038 52.4747C307.195 54.9121 304.485 56.2842 302.168 55.4443C299.89 54.6223 298.737 52.0062 299.585 49.585Z" fill="url(#paint33_linear_28_500)"/>
<path d="M306.224 57.4911C308.475 58.286 309.583 60.4789 308.809 62.6204C307.999 64.8643 305.601 66.0805 303.493 65.3223C301.367 64.5541 300.291 62.113 301.084 59.8667C301.836 57.7355 304.036 56.7188 306.224 57.4911Z" fill="url(#paint34_linear_28_500)"/>
<path d="M300.985 39.507C301.779 37.279 303.919 36.198 306.031 36.9649C308.275 37.7789 309.478 40.1749 308.697 42.2884C307.921 44.386 305.361 45.5739 303.253 44.8082C301.174 44.0493 300.187 41.7479 300.985 39.507Z" fill="url(#paint35_linear_28_500)"/>
<path d="M306.964 74.6757C304.961 73.9652 303.951 71.8178 304.661 69.7761C305.348 67.7982 307.428 66.8578 309.502 67.5898C311.45 68.2769 312.385 70.2612 311.701 72.2509C310.99 74.3173 308.927 75.3716 306.964 74.6757Z" fill="url(#paint36_linear_28_500)"/>
<path d="M309.175 27.5343C311.153 28.2862 312.199 30.5435 311.462 32.4712C310.731 34.3797 308.411 35.3571 306.447 34.585C304.617 33.8676 303.729 31.7383 304.453 29.7985C305.197 27.8013 307.267 26.8071 309.175 27.5343Z" fill="url(#paint37_linear_28_500)"/>
<path d="M310.26 78.6456C310.911 76.9106 312.87 76.0572 314.677 76.7196C316.395 77.3505 317.232 79.2818 316.559 81.0593C315.886 82.8369 313.995 83.7471 312.288 83.1056C310.486 82.4305 309.585 80.4478 310.26 78.6456Z" fill="url(#paint38_linear_28_500)"/>
<path d="M311.947 25.3559C310.14 24.7332 309.276 23.0084 309.877 21.234C310.518 19.337 312.456 18.2925 314.192 18.9043C315.905 19.5084 316.892 21.6404 316.274 23.4017C315.683 25.0894 313.728 25.9696 311.947 25.3559Z" fill="url(#paint39_linear_28_500)"/>
<path d="M318.965 17.371C317.329 16.7907 316.541 15.1722 317.122 13.5958C317.713 11.9874 319.476 11.1181 321.003 11.6741C322.559 12.2403 323.336 13.9776 322.771 15.6208C322.226 17.2095 320.603 17.9556 318.965 17.371Z" fill="url(#paint40_linear_28_500)"/>
<path d="M319.429 90.1781C317.814 89.6089 316.957 87.8649 317.526 86.3098C318.097 84.7514 319.88 83.9221 321.468 84.478C323.006 85.016 323.768 86.7156 323.2 88.3362C322.62 89.9812 321.048 90.7485 319.429 90.1781Z" fill="url(#paint41_linear_28_500)"/>
<path d="M325.782 7.71261C326.257 6.33287 327.84 5.55824 329.203 6.03449C330.55 6.50512 331.257 7.998 330.795 9.40366C330.328 10.8296 328.83 11.5584 327.403 11.049C326.016 10.5499 325.305 9.08803 325.782 7.71261Z" fill="url(#paint42_linear_28_500)"/>
<path d="M335.53 3.75613C335.946 2.52447 337.231 1.87484 338.453 2.27594C339.586 2.64881 340.214 3.97318 339.826 5.16777C339.431 6.38154 338.206 7.02354 337.01 6.64645C335.753 6.24372 335.11 4.99308 335.53 3.75613Z" fill="url(#paint43_linear_28_500)"/>
<path d="M348.395 0.66714C349.361 1.03843 349.847 2.11826 349.489 3.10748C349.126 4.1234 347.988 4.64887 347.001 4.25581C346.058 3.88165 345.535 2.74228 345.874 1.80744C346.224 0.840611 347.425 0.297925 348.395 0.66714Z" fill="url(#paint44_linear_28_500)"/>
<path d="M356.47 2.11207C356.764 1.29443 357.586 0.894749 358.406 1.17474C359.197 1.44463 359.612 2.31533 359.332 3.11602C359.035 3.9722 358.155 4.39455 357.33 4.07696C356.543 3.77605 356.173 2.93929 356.47 2.11207Z" fill="url(#paint45_linear_28_500)"/>
<path d="M366.746 4.54614C367.037 3.86464 367.536 3.66351 368.21 3.9133C368.893 4.16646 369.106 4.68124 368.889 5.36393C368.676 6.03703 368.021 6.30536 367.352 6.03206C366.726 5.77767 366.49 5.19713 366.746 4.54614Z" fill="url(#paint46_linear_28_500)"/>
<path d="M44.1185 119.398V94.3941C54.1136 93.6133 58.276 102.201 58.276 106.677V119.398C58.276 130.813 72.7163 133.712 79.9365 133.735H58.276C48.0636 133.708 44.5825 124.166 44.1185 119.398Z" fill="url(#paint47_linear_28_500)"/>
<path d="M44.1184 145.008V119.432C45.8296 131.358 54.2471 133.981 58.2419 133.802V158.907C46.916 158.261 44.1071 149.372 44.1184 145.008Z" fill="url(#paint48_linear_28_500)"/>
<path d="M44.1185 133.465V119.432C46.2021 131.197 53.8652 133.744 58.2524 133.744L58.1741 158.907C46.3864 148.461 43.8922 137.593 44.1185 133.465Z" fill="url(#paint49_linear_28_500)"/>
<path d="M80.0723 133.701C61.929 133.189 57.9817 124.109 58.2759 119.634H80.0723C91.8056 119.634 94.3995 127.912 94.2297 132.052V145.681C93.9853 157.365 84.6896 159.344 80.0723 158.873V133.701Z" fill="url(#paint50_linear_28_500)"/>
<path d="M80.0383 107.249V123.268L94.2297 135.114V94.4274C83.0124 95.2081 80.0949 103.301 80.0383 107.249Z" fill="url(#paint51_linear_28_500)"/>
<path d="M80.0383 116.773V123.268L94.2637 135.181V94.3937C84.4859 102.147 80.706 112.544 80.0383 116.773Z" fill="url(#paint52_linear_28_500)"/>
<path d="M80.0723 133.701C61.8204 133.108 57.9365 124.076 58.276 119.634H80.0723C95.0446 119.634 94.2637 129.696 94.2637 135.484C92.444 146.765 84.0445 155.777 80.0723 158.873V133.701Z" fill="url(#paint53_linear_28_500)"/>
<path d="M33.9457 142.164C30.7959 147.367 24.4513 147.684 21.6727 147.192C26.6387 146.488 28.4004 142.797 28.6605 141.039C31.782 133.36 27.8329 127.314 25.4681 125.252C27.5964 124.886 29.6892 123.41 30.2567 122.894L33.1653 125.252C38.2164 133.549 35.7902 139.984 33.9457 142.164Z" fill="url(#paint54_linear_28_500)"/>
<path d="M0 142.445V94.3464C10.3221 95.083 12.6868 102.527 12.7341 106.125V114.081C12.7341 133.357 19.166 160.066 36.677 152.009C32.2502 158.141 23.6 159.158 19.8283 158.9C3.96566 158.619 0 147.813 0 142.445Z" fill="url(#paint55_linear_28_500)"/>
<path d="M0 142.691V120.786C6.15776 122.924 6.49119 135.188 6.49119 142.691C7.17223 152.62 16.8724 156.134 21.6373 156.65C29.7247 156.818 35.0099 153.649 36.6415 152.044C32.3566 158.035 24.073 159.111 20.4668 158.9C4.60413 159.153 0.212826 148.199 0 142.691Z" fill="url(#paint56_linear_28_500)"/>
<path d="M36.677 152.009C22.971 158.084 15.5954 150.04 13.6208 145.258C15.0681 147.508 19.6391 147.461 21.7437 147.156C30.2243 148.298 37.8331 139.139 35.6016 130.878C34.9746 128.557 33.9729 126.544 33.1654 125.25C45.8782 134.363 40.8034 146.852 36.677 152.009Z" fill="url(#paint57_linear_28_500)"/>
<path d="M23.3045 131.686C28.7244 133.796 29.1335 138.8 28.6606 141.039C32.7752 130.876 27.963 126.762 25.5037 125.25C22.7015 125.776 20.4432 125.65 19.2253 125.392C15.359 123.738 13.2544 121.113 12.7341 119.66C12.6987 127.184 16.5295 129.049 23.3045 131.686Z" fill="url(#paint58_linear_28_500)"/>
<path d="M24.6893 125.509C17.8221 127.225 13.8352 122.288 12.7356 119.674H17.2404C18.8295 119.787 20.5711 118.749 21.245 118.233C21.3417 118.219 21.4388 118.206 21.5362 118.193C27.1725 117.468 34.5442 119.114 36.0419 113.718C36.0532 113.676 36.0644 113.634 36.0755 113.591C36.0647 113.634 36.0535 113.676 36.0419 113.718C33.6894 122.451 27.5252 125.264 24.6893 125.509Z" fill="url(#paint59_linear_28_500)"/>
<path d="M30.044 118.852C26.3266 117.868 22.6284 118.034 21.245 118.233C22.2027 117.811 22.3822 117.13 23.3754 116.145C24.3686 115.161 26.1067 114.282 27.9157 113.578C29.3629 113.016 30.3869 110.906 30.7179 109.922C33.5272 103.221 29.973 98.6689 27.9157 97.0164C36.3436 101.404 36.8662 109.875 36.074 113.578C34.6552 118.22 31.4628 119.028 30.044 118.852Z" fill="url(#paint60_linear_28_500)"/>
<path d="M30.044 118.852C26.3266 117.868 22.6284 118.034 21.245 118.233C22.2027 117.811 22.3822 117.13 23.3754 116.145C24.3686 115.161 26.1067 114.282 27.9157 113.578C29.3629 113.016 30.3869 110.906 30.7179 109.922C33.5272 103.221 29.973 98.6689 27.9157 97.0164C36.3436 101.404 36.8662 109.875 36.074 113.578C34.6552 118.22 31.4628 119.028 30.044 118.852Z" fill="url(#paint61_linear_28_500)"/>
<path d="M30.044 118.852C26.3266 117.868 22.6284 118.034 21.245 118.233C22.2027 117.811 22.3822 117.13 23.3754 116.145C24.3686 115.161 26.1067 114.282 27.9157 113.578C29.3629 113.016 30.3869 110.906 30.7179 109.922C33.5272 103.221 29.973 98.6689 27.9157 97.0164C36.3436 101.404 36.8662 109.875 36.074 113.578C34.6552 118.22 31.4628 119.028 30.044 118.852Z" fill="url(#paint62_linear_28_500)"/>
<path d="M19.9347 100.216C26.1776 104.548 24.8527 112.611 23.3866 116.139C24.3798 115.154 26.4377 114.2 27.3481 113.86C28.7386 113.382 29.5828 112.323 29.7956 111.854C34.2224 104.372 30.3632 98.8465 27.9157 97.0181C23.6024 94.796 17.9601 94.3108 15.6782 94.346H0C4.85953 94.8716 12.1311 94.8013 19.9347 100.216Z" fill="url(#paint63_linear_28_500)"/>
<path d="M19.58 106.266C25.1135 108.01 24.4395 113.532 23.4109 116.075C30.2497 99.1703 10.6531 94.5456 0 94.3464C10.0454 95.0214 12.675 102.48 12.7341 106.125C14.4083 105.703 17.9956 106.043 19.58 106.266Z" fill="url(#paint64_linear_28_500)"/>
<path d="M385.219 117.057V158.713C396.719 159.431 399.152 149.729 398.93 144.788V130.564C397.481 114.978 404.648 110.722 408.414 110.543L419.045 109.467C427.888 107.077 429.414 98.3512 429.072 94.2872H413.246C390.147 95.865 385.218 114.564 385.219 117.057Z" fill="url(#paint65_linear_28_500)"/>
<path d="M386.252 158.803C385.879 158.807 385.531 158.781 385.223 158.733C385.575 158.765 385.917 158.788 386.252 158.803C388.665 158.771 392.109 157.422 392.109 152.038V117.669C392.008 115.238 389.343 110.329 379.486 110.138C372.663 110.403 373.771 110.175 371.879 110.086C367.631 109.747 358.987 106.169 358.407 94.3577H429.072C429.414 98.6614 427.888 107.711 419.046 109.48C416.771 109.879 411.013 110.747 406.181 111.034C404.128 111.851 399.428 115.164 399.428 121.935L398.994 147.974C398.994 151.851 396.413 159.246 386.252 158.803Z" fill="url(#paint66_linear_28_500)"/>
<path d="M413.149 94.2872C386.251 95.6752 384.369 106.912 385.208 124.333C390.821 105.725 407.98 112.286 419.005 109.604C428.473 107.3 429.367 98.3756 429.085 94.2872H413.149Z" fill="url(#paint67_linear_28_500)"/>
<path d="M412.859 94.2872C384.245 95.6978 384.281 109.522 385.208 124.333C389.014 102.383 403.252 103.378 417.028 102.78C428.049 102.302 429.704 96.9188 429.079 94.2872H412.859Z" fill="url(#paint68_linear_28_500)"/>
<path d="M370.56 109.945C360.638 107.942 358.324 98.7188 358.407 94.3577H389.912C386.74 95.6625 379.748 99.0973 377.153 102.398C374.559 105.699 376.714 108.969 378.116 110.192C375.749 110.502 372.093 110.156 370.56 109.945Z" fill="url(#paint69_linear_28_500)"/>
<path d="M363.361 106.383C359.312 102.885 358.371 96.9085 358.407 94.3577H372.663C363.111 95.1477 362.482 102.704 363.361 106.383Z" fill="url(#paint70_linear_28_500)"/>
<path d="M130.224 158.671C111.239 158.295 101.689 142.271 100.107 135.841C107.227 147.368 123.601 150.118 136.157 145.027C144.51 141.639 148.497 133.108 149.447 129.266V153.025C145.839 158.106 135.129 158.906 130.224 158.671Z" fill="url(#paint71_linear_28_500)"/>
<path d="M130.224 158.671C111.239 158.295 101.689 142.271 100.107 135.841C107.227 147.368 123.601 150.118 136.157 145.027C144.51 141.639 148.497 133.108 149.447 129.266V153.025C145.839 158.106 135.129 158.906 130.224 158.671Z" fill="url(#paint72_linear_28_500)"/>
<path d="M149.443 158.707H163.453V137.46C163.453 120.462 147.781 111.333 139.945 108.894C148.731 115.504 149.443 125.97 149.443 129.197V158.707Z" fill="url(#paint73_linear_28_500)"/>
<path d="M130.467 94.1763C160.593 93.8002 165.175 123.408 163.405 136.731C163.405 126.386 149.529 107.342 130.942 107.577C116.072 107.765 110.858 120.977 110.214 127.56C106.931 103.486 121.849 95.1129 130.467 94.1763Z" fill="url(#paint74_linear_28_500)"/>
<path d="M130.467 94.1763C160.593 93.8002 165.175 123.408 163.405 136.731C163.405 126.386 149.529 107.342 130.942 107.577C116.072 107.765 110.858 120.977 110.214 127.56C106.931 103.486 121.849 95.1129 130.467 94.1763Z" fill="url(#paint75_linear_28_500)"/>
<path d="M110.674 127.64C113.902 143.279 128.952 145.776 136.074 145.069C114.494 153.772 103.078 143.42 99.9919 135.883C92.3563 103.973 118.722 94.3538 131.564 94.1789C131.889 94.1694 132.213 94.1711 132.535 94.1841C132.221 94.1762 131.897 94.1743 131.564 94.1789C120.128 94.5124 106.75 108.632 110.674 127.64Z" fill="url(#paint76_linear_28_500)"/>
<path d="M110.674 127.64C113.902 143.279 128.952 145.776 136.074 145.069C114.494 153.772 103.078 143.42 99.9919 135.883C92.3563 103.973 118.722 94.3538 131.564 94.1789C131.889 94.1694 132.213 94.1711 132.535 94.1841C132.221 94.1762 131.897 94.1743 131.564 94.1789C120.128 94.5124 106.75 108.632 110.674 127.64Z" fill="url(#paint77_linear_28_500)"/>
<path d="M110.674 127.64C113.902 143.279 128.952 145.776 136.074 145.069C114.494 153.772 103.078 143.42 99.9919 135.883C92.3563 103.973 118.722 94.3538 131.564 94.1789C131.889 94.1694 132.213 94.1711 132.535 94.1841C132.221 94.1762 131.897 94.1743 131.564 94.1789C120.128 94.5124 106.75 108.632 110.674 127.64Z" fill="url(#paint78_linear_28_500)"/>
<path d="M198.185 158.614C179.2 158.238 169.65 142.214 168.068 135.784C175.188 147.311 191.562 150.061 204.118 144.97C212.471 141.582 216.458 133.051 217.408 129.209V152.968C213.8 158.049 203.09 158.849 198.185 158.614Z" fill="url(#paint79_linear_28_500)"/>
<path d="M217.404 158.65H231.414V137.403C231.414 120.405 215.742 111.276 207.906 108.837C216.692 115.447 217.404 125.913 217.404 129.14V158.65Z" fill="url(#paint80_linear_28_500)"/>
<path d="M198.158 94.1193C228.284 93.7432 232.866 123.351 231.096 136.674C231.096 126.329 217.22 107.285 198.633 107.52C183.763 107.708 178.549 120.92 177.905 127.503C174.622 103.429 189.541 95.0559 198.158 94.1193Z" fill="url(#paint81_linear_28_500)"/>
<path d="M178.635 127.583C181.863 143.222 196.913 145.718 204.035 145.012C182.455 153.715 171.039 143.363 167.953 135.826C160.317 103.916 186.683 94.2968 199.525 94.1218C199.85 94.1123 200.174 94.114 200.496 94.127C200.182 94.1191 199.858 94.1173 199.525 94.1218C188.089 94.4553 174.711 108.575 178.635 127.583Z" fill="url(#paint82_linear_28_500)"/>
<path d="M323.347 158.728C304.362 158.352 294.812 142.328 293.23 135.898C300.35 147.425 316.724 150.176 329.28 145.084C337.634 141.697 341.621 133.165 342.57 129.323V153.082C338.963 158.164 328.252 158.963 323.347 158.728Z" fill="url(#paint83_linear_28_500)"/>
<path d="M323.347 158.728C304.362 158.352 294.812 142.328 293.23 135.898C300.35 147.425 316.724 150.176 329.28 145.084C337.634 141.697 341.621 133.165 342.57 129.323V153.082C338.963 158.164 328.252 158.963 323.347 158.728Z" fill="url(#paint84_linear_28_500)"/>
<path d="M323.32 158.733C304.335 158.357 294.785 142.333 293.203 135.903C300.323 147.43 316.697 150.181 329.253 145.089C337.607 141.701 341.593 133.17 342.543 129.328V153.087C338.935 158.168 328.225 158.968 323.32 158.733Z" fill="url(#paint85_linear_28_500)"/>
<path d="M342.559 158.762H356.569V137.514C356.569 120.516 340.897 111.388 333.061 108.948C341.847 115.559 342.559 126.025 342.559 129.252V158.762Z" fill="url(#paint86_linear_28_500)"/>
<path d="M323.59 94.2335C353.716 93.8574 358.298 123.465 356.528 136.788C356.528 126.443 342.652 107.399 324.065 107.634C309.195 107.822 303.981 121.035 303.337 127.618C300.054 103.543 314.973 95.1701 323.59 94.2335Z" fill="url(#paint87_linear_28_500)"/>
<path d="M303.797 127.697C307.026 143.336 322.075 145.833 329.197 145.126C307.617 153.829 296.201 143.477 293.115 135.941C285.479 104.03 311.845 94.411 324.687 94.236C325.013 94.2265 325.336 94.2282 325.658 94.2412C325.344 94.2333 325.02 94.2315 324.687 94.236C313.251 94.5695 299.873 108.689 303.797 127.697Z" fill="url(#paint88_linear_28_500)"/>
<path d="M246.954 108.75C236.324 107.48 234.125 98.5407 234.354 94.23H266.657C271.697 96.045 281.777 102.489 281.777 113.742C281.777 124.995 272.002 131.136 267.115 132.8L288.879 153.9C280.998 161.342 273.224 158.513 270.322 156.169C263.602 149.362 249.52 135.069 246.954 132.346C244.389 129.624 243.747 127.279 243.747 126.447C243.197 120.639 247.336 118.885 249.474 118.733H262.304C263.755 118.658 266.657 117.554 266.657 113.742C266.657 109.93 263.755 108.826 262.304 108.75H246.954Z" fill="url(#paint89_linear_28_500)"/>
<path d="M264.556 94.235H234.3C238.517 99.6901 243.545 100.902 245.531 100.827H259.055C267.536 100.827 272.808 103.327 273.267 114.237C272.808 123.102 264.709 125.147 260.43 125.147H254.7C251.583 125.147 251.889 127.503 253.095 128.784C258.444 134.466 270.012 146.695 273.496 150.15C276.98 153.605 278.958 154.014 279.685 154.014L288.897 153.896L267.069 132.865C279.172 129.411 281.812 119.01 281.736 114.237C281.965 101.507 271.925 94.0085 264.556 94.235Z" fill="url(#paint90_linear_28_500)"/>
<g clip-path="url(#clip1_28_500)">
<path d="M452 41.1445C452 39.9587 451.521 38.8907 450.743 38.1128C449.965 37.3349 448.897 36.8555 447.711 36.8555H443.144V28C441.959 28 440.891 28.4794 440.113 29.2573C439.335 30.0352 438.856 31.1074 438.856 32.2932V36.8555H430C430 39.2271 431.922 41.1445 434.289 41.1445H438.856V50C441.223 50 443.144 48.0784 443.144 45.711V41.1445H452Z" fill="url(#paint91_linear_28_500)"/>
<path d="M452 41.1445H443.144V45.711C443.144 48.0784 441.223 50 438.855 50V41.1445L443.144 36.8555H447.711C448.897 36.8555 449.965 37.3349 450.743 38.1128C451.521 38.8907 452 39.9587 452 41.1445Z" fill="url(#paint92_linear_28_500)"/>
</g>
<defs>
<linearGradient id="paint0_linear_28_500" x1="352.085" y1="43.9344" x2="352.085" y2="87.9357" gradientUnits="userSpaceOnUse">
<stop stop-color="#F5611D"/>
<stop offset="0.458333" stop-color="#ED9236"/>
<stop offset="1" stop-color="#F9450F"/>
</linearGradient>
<linearGradient id="paint1_linear_28_500" x1="383.03" y1="44.8505" x2="383.03" y2="87.0355" gradientUnits="userSpaceOnUse">
<stop stop-color="#ED6DCE"/>
<stop offset="0.473958" stop-color="#7640CD"/>
<stop offset="1" stop-color="#0515CC"/>
</linearGradient>
<linearGradient id="paint2_linear_28_500" x1="403.663" y1="45.157" x2="399.935" y2="83.8354" gradientUnits="userSpaceOnUse">
<stop offset="0.0362075" stop-color="#F55D1C"/>
<stop offset="0.463119" stop-color="#EC9337"/>
<stop offset="0.860643" stop-color="#F55D1C"/>
</linearGradient>
<linearGradient id="paint3_linear_28_500" x1="359.425" y1="21.2016" x2="354.05" y2="19.2956" gradientUnits="userSpaceOnUse">
<stop stop-color="#E369CE"/>
<stop offset="1" stop-color="#1E1ECC"/>
</linearGradient>
<linearGradient id="paint4_linear_28_500" x1="365.484" y1="22.8551" x2="360.559" y2="21.1085" gradientUnits="userSpaceOnUse">
<stop stop-color="#E369CE"/>
<stop offset="1" stop-color="#1E1ECC"/>
</linearGradient>
<linearGradient id="paint5_linear_28_500" x1="352.684" y1="20.7573" x2="347.771" y2="19.0153" gradientUnits="userSpaceOnUse">
<stop stop-color="#E369CE"/>
<stop offset="1" stop-color="#1E1ECC"/>
</linearGradient>
<linearGradient id="paint6_linear_28_500" x1="371.06" y1="25.8499" x2="366.54" y2="24.247" gradientUnits="userSpaceOnUse">
<stop stop-color="#E369CE"/>
<stop offset="1" stop-color="#1E1ECC"/>
</linearGradient>
<linearGradient id="paint7_linear_28_500" x1="346.014" y1="21.6813" x2="341.567" y2="20.1043" gradientUnits="userSpaceOnUse">
<stop stop-color="#E369CE"/>
<stop offset="1" stop-color="#1E1ECC"/>
</linearGradient>
<linearGradient id="paint8_linear_28_500" x1="339.742" y1="23.9937" x2="335.719" y2="22.5671" gradientUnits="userSpaceOnUse">
<stop stop-color="#E369CE"/>
<stop offset="1" stop-color="#1E1ECC"/>
</linearGradient>
<linearGradient id="paint9_linear_28_500" x1="375.764" y1="29.9483" x2="371.728" y2="28.5171" gradientUnits="userSpaceOnUse">
<stop stop-color="#E369CE"/>
<stop offset="1" stop-color="#1E1ECC"/>
</linearGradient>
<linearGradient id="paint10_linear_28_500" x1="334.116" y1="27.5595" x2="330.485" y2="26.272" gradientUnits="userSpaceOnUse">
<stop stop-color="#E369CE"/>
<stop offset="1" stop-color="#1E1ECC"/>
</linearGradient>
<linearGradient id="paint11_linear_28_500" x1="379.538" y1="35.0633" x2="375.929" y2="33.7836" gradientUnits="userSpaceOnUse">
<stop stop-color="#E369CE"/>
<stop offset="1" stop-color="#1E1ECC"/>
</linearGradient>
<linearGradient id="paint12_linear_28_500" x1="329.275" y1="32.1579" x2="326.145" y2="31.0478" gradientUnits="userSpaceOnUse">
<stop stop-color="#E369CE"/>
<stop offset="1" stop-color="#1E1ECC"/>
</linearGradient>
<linearGradient id="paint13_linear_28_500" x1="382.075" y1="40.8719" x2="378.918" y2="39.7524" gradientUnits="userSpaceOnUse">
<stop stop-color="#E369CE"/>
<stop offset="1" stop-color="#1E1ECC"/>
</linearGradient>
<linearGradient id="paint14_linear_28_500" x1="325.612" y1="37.6549" x2="322.899" y2="36.6928" gradientUnits="userSpaceOnUse">
<stop stop-color="#E369CE"/>
<stop offset="1" stop-color="#1E1ECC"/>
</linearGradient>
<linearGradient id="paint15_linear_28_500" x1="323.116" y1="43.7604" x2="320.881" y2="42.9677" gradientUnits="userSpaceOnUse">
<stop stop-color="#E369CE"/>
<stop offset="1" stop-color="#1E1ECC"/>
</linearGradient>
<linearGradient id="paint16_linear_28_500" x1="330.395" y1="22.7093" x2="323.758" y2="20.3556" gradientUnits="userSpaceOnUse">
<stop stop-color="#EC9739"/>
<stop offset="1" stop-color="#F55D1C"/>
</linearGradient>
<linearGradient id="paint17_linear_28_500" x1="324.605" y1="28.588" x2="318.444" y2="26.4034" gradientUnits="userSpaceOnUse">
<stop stop-color="#EC9739"/>
<stop offset="1" stop-color="#F55D1C"/>
</linearGradient>
<linearGradient id="paint18_linear_28_500" x1="336.824" y1="17.9851" x2="330.715" y2="15.8185" gradientUnits="userSpaceOnUse">
<stop stop-color="#EC9739"/>
<stop offset="1" stop-color="#F55D1C"/>
</linearGradient>
<linearGradient id="paint19_linear_28_500" x1="320.126" y1="35.5018" x2="314.51" y2="33.5106" gradientUnits="userSpaceOnUse">
<stop stop-color="#EC9739"/>
<stop offset="1" stop-color="#F55D1C"/>
</linearGradient>
<linearGradient id="paint20_linear_28_500" x1="343.985" y1="14.8039" x2="338.474" y2="12.8496" gradientUnits="userSpaceOnUse">
<stop stop-color="#EC9739"/>
<stop offset="1" stop-color="#F55D1C"/>
</linearGradient>
<linearGradient id="paint21_linear_28_500" x1="351.763" y1="13.3072" x2="346.686" y2="11.5067" gradientUnits="userSpaceOnUse">
<stop stop-color="#EC9739"/>
<stop offset="1" stop-color="#F55D1C"/>
</linearGradient>
<linearGradient id="paint22_linear_28_500" x1="317.18" y1="43.1651" x2="312.128" y2="41.3737" gradientUnits="userSpaceOnUse">
<stop stop-color="#EC9739"/>
<stop offset="1" stop-color="#F55D1C"/>
</linearGradient>
<linearGradient id="paint23_linear_28_500" x1="359.594" y1="13.519" x2="355.068" y2="11.9139" gradientUnits="userSpaceOnUse">
<stop stop-color="#EC9739"/>
<stop offset="1" stop-color="#F55D1C"/>
</linearGradient>
<linearGradient id="paint24_linear_28_500" x1="315.945" y1="51.1793" x2="311.444" y2="49.5831" gradientUnits="userSpaceOnUse">
<stop stop-color="#EC9739"/>
<stop offset="1" stop-color="#F55D1C"/>
</linearGradient>
<linearGradient id="paint25_linear_28_500" x1="316.409" y1="59.1855" x2="312.459" y2="57.7846" gradientUnits="userSpaceOnUse">
<stop stop-color="#EC9739"/>
<stop offset="1" stop-color="#F55D1C"/>
</linearGradient>
<linearGradient id="paint26_linear_28_500" x1="367.117" y1="15.4302" x2="363.197" y2="14.0402" gradientUnits="userSpaceOnUse">
<stop stop-color="#EC9739"/>
<stop offset="1" stop-color="#F55D1C"/>
</linearGradient>
<linearGradient id="paint27_linear_28_500" x1="374.065" y1="18.9654" x2="370.665" y2="17.7599" gradientUnits="userSpaceOnUse">
<stop stop-color="#EC9739"/>
<stop offset="1" stop-color="#F55D1C"/>
</linearGradient>
<linearGradient id="paint28_linear_28_500" x1="318.562" y1="66.8295" x2="315.172" y2="65.6274" gradientUnits="userSpaceOnUse">
<stop stop-color="#EC9739"/>
<stop offset="1" stop-color="#F55D1C"/>
</linearGradient>
<linearGradient id="paint29_linear_28_500" x1="380.077" y1="23.976" x2="377.228" y2="22.9658" gradientUnits="userSpaceOnUse">
<stop stop-color="#EC9739"/>
<stop offset="1" stop-color="#F55D1C"/>
</linearGradient>
<linearGradient id="paint30_linear_28_500" x1="322.315" y1="73.7897" x2="319.476" y2="72.7828" gradientUnits="userSpaceOnUse">
<stop stop-color="#EC9739"/>
<stop offset="1" stop-color="#F55D1C"/>
</linearGradient>
<linearGradient id="paint31_linear_28_500" x1="327.439" y1="79.6788" x2="325.204" y2="78.8863" gradientUnits="userSpaceOnUse">
<stop stop-color="#EC9739"/>
<stop offset="1" stop-color="#F55D1C"/>
</linearGradient>
<linearGradient id="paint32_linear_28_500" x1="384.803" y1="30.217" x2="382.567" y2="29.424" gradientUnits="userSpaceOnUse">
<stop stop-color="#EC9739"/>
<stop offset="1" stop-color="#F55D1C"/>
</linearGradient>
<linearGradient id="paint33_linear_28_500" x1="307.964" y1="52.6859" x2="299.544" y2="49.7002" gradientUnits="userSpaceOnUse">
<stop stop-color="#DD67CE"/>
<stop offset="1" stop-color="#2521CC"/>
</linearGradient>
<linearGradient id="paint34_linear_28_500" x1="308.75" y1="62.7868" x2="301.021" y2="60.0458" gradientUnits="userSpaceOnUse">
<stop stop-color="#DD67CE"/>
<stop offset="1" stop-color="#2521CC"/>
</linearGradient>
<linearGradient id="paint35_linear_28_500" x1="308.686" y1="42.3205" x2="300.959" y2="39.5806" gradientUnits="userSpaceOnUse">
<stop stop-color="#DD67CE"/>
<stop offset="1" stop-color="#2521CC"/>
</linearGradient>
<linearGradient id="paint36_linear_28_500" x1="311.666" y1="72.3501" x2="304.633" y2="69.856" gradientUnits="userSpaceOnUse">
<stop stop-color="#DD67CE"/>
<stop offset="1" stop-color="#2521CC"/>
</linearGradient>
<linearGradient id="paint37_linear_28_500" x1="311.499" y1="32.3682" x2="304.43" y2="29.8613" gradientUnits="userSpaceOnUse">
<stop stop-color="#DD67CE"/>
<stop offset="1" stop-color="#2521CC"/>
</linearGradient>
<linearGradient id="paint38_linear_28_500" x1="316.577" y1="81.0102" x2="310.22" y2="78.7559" gradientUnits="userSpaceOnUse">
<stop stop-color="#DD67CE"/>
<stop offset="1" stop-color="#2521CC"/>
</linearGradient>
<linearGradient id="paint39_linear_28_500" x1="316.317" y1="23.2818" x2="309.951" y2="21.0245" gradientUnits="userSpaceOnUse">
<stop stop-color="#DD67CE"/>
<stop offset="1" stop-color="#2521CC"/>
</linearGradient>
<linearGradient id="paint40_linear_28_500" x1="322.806" y1="15.5232" x2="317.149" y2="13.5173" gradientUnits="userSpaceOnUse">
<stop stop-color="#DD67CE"/>
<stop offset="1" stop-color="#2521CC"/>
</linearGradient>
<linearGradient id="paint41_linear_28_500" x1="323.21" y1="88.3074" x2="317.532" y2="86.2937" gradientUnits="userSpaceOnUse">
<stop stop-color="#DD67CE"/>
<stop offset="1" stop-color="#2521CC"/>
</linearGradient>
<linearGradient id="paint42_linear_28_500" x1="330.789" y1="9.42313" x2="325.803" y2="7.65499" gradientUnits="userSpaceOnUse">
<stop stop-color="#DD67CE"/>
<stop offset="1" stop-color="#2521CC"/>
</linearGradient>
<linearGradient id="paint43_linear_28_500" x1="339.815" y1="5.20038" x2="335.554" y2="3.68921" gradientUnits="userSpaceOnUse">
<stop stop-color="#DD67CE"/>
<stop offset="1" stop-color="#2521CC"/>
</linearGradient>
<linearGradient id="paint44_linear_28_500" x1="349.493" y1="3.09833" x2="345.872" y2="1.81425" gradientUnits="userSpaceOnUse">
<stop stop-color="#DD67CE"/>
<stop offset="1" stop-color="#2521CC"/>
</linearGradient>
<linearGradient id="paint45_linear_28_500" x1="359.323" y1="3.14184" x2="356.464" y2="2.12828" gradientUnits="userSpaceOnUse">
<stop stop-color="#DD67CE"/>
<stop offset="1" stop-color="#2521CC"/>
</linearGradient>
<linearGradient id="paint46_linear_28_500" x1="368.889" y1="5.36649" x2="366.726" y2="4.59931" gradientUnits="userSpaceOnUse">
<stop stop-color="#DD67CE"/>
<stop offset="1" stop-color="#2521CC"/>
</linearGradient>
<linearGradient id="paint47_linear_28_500" x1="44.1185" y1="94.861" x2="54.1969" y2="136.35" gradientUnits="userSpaceOnUse">
<stop stop-color="#FF74CF"/>
<stop offset="1" stop-color="#0515CC"/>
</linearGradient>
<linearGradient id="paint48_linear_28_500" x1="44.1184" y1="119.95" x2="63.8006" y2="151.83" gradientUnits="userSpaceOnUse">
<stop stop-color="#FF74CF"/>
<stop offset="1" stop-color="#0515CC"/>
</linearGradient>
<linearGradient id="paint49_linear_28_500" x1="44.1049" y1="119.95" x2="63.7721" y2="151.86" gradientUnits="userSpaceOnUse">
<stop stop-color="#FF74CF"/>
<stop offset="1" stop-color="#0515CC"/>
</linearGradient>
<linearGradient id="paint50_linear_28_500" x1="58.261" y1="120.149" x2="68.2575" y2="161.576" gradientUnits="userSpaceOnUse">
<stop stop-color="#FF74CF"/>
<stop offset="1" stop-color="#0515CC"/>
</linearGradient>
<linearGradient id="paint51_linear_28_500" x1="80.0383" y1="94.9611" x2="100.552" y2="127.353" gradientUnits="userSpaceOnUse">
<stop stop-color="#FF74CF"/>
<stop offset="1" stop-color="#0515CC"/>
</linearGradient>
<linearGradient id="paint52_linear_28_500" x1="80.0383" y1="94.9288" x2="100.603" y2="127.4" gradientUnits="userSpaceOnUse">
<stop stop-color="#FF74CF"/>
<stop offset="1" stop-color="#0515CC"/>
</linearGradient>
<linearGradient id="paint53_linear_28_500" x1="58.2561" y1="120.148" x2="68.2131" y2="161.521" gradientUnits="userSpaceOnUse">
<stop stop-color="#FF74CF"/>
<stop offset="1" stop-color="#0515CC"/>
</linearGradient>
<linearGradient id="paint54_linear_28_500" x1="21.6727" y1="123.215" x2="30.5996" y2="147.176" gradientUnits="userSpaceOnUse">
<stop stop-color="#FF74CF"/>
<stop offset="1" stop-color="#0515CC"/>
</linearGradient>
<linearGradient id="paint55_linear_28_500" x1="3.6629e-07" y1="95.1937" x2="24.3418" y2="157.77" gradientUnits="userSpaceOnUse">
<stop stop-color="#FF74CF"/>
<stop offset="1" stop-color="#0515CC"/>
</linearGradient>
<linearGradient id="paint56_linear_28_500" x1="3.65936e-07" y1="121.287" x2="9.28925" y2="161.691" gradientUnits="userSpaceOnUse">
<stop stop-color="#FF74CF"/>
<stop offset="1" stop-color="#0515CC"/>
</linearGradient>
<linearGradient id="paint57_linear_28_500" x1="13.6208" y1="125.63" x2="20.7103" y2="156.27" gradientUnits="userSpaceOnUse">
<stop stop-color="#FF74CF"/>
<stop offset="1" stop-color="#0515CC"/>
</linearGradient>
<linearGradient id="paint58_linear_28_500" x1="12.7339" y1="119.94" x2="18.723" y2="142.174" gradientUnits="userSpaceOnUse">
<stop stop-color="#FF74CF"/>
<stop offset="1" stop-color="#0515CC"/>
</linearGradient>
<linearGradient id="paint59_linear_28_500" x1="12.7356" y1="113.752" x2="14.3042" y2="127.259" gradientUnits="userSpaceOnUse">
<stop stop-color="#FF74CF"/>
<stop offset="1" stop-color="#0515CC"/>
</linearGradient>
<linearGradient id="paint60_linear_28_500" x1="34.4519" y1="116.658" x2="33.5288" y2="96.6111" gradientUnits="userSpaceOnUse">
<stop stop-color="#EC9739"/>
<stop offset="1" stop-color="#FF2700"/>
</linearGradient>
<linearGradient id="paint61_linear_28_500" x1="34.4519" y1="116.658" x2="33.5288" y2="96.6111" gradientUnits="userSpaceOnUse">
<stop stop-color="#EC9739"/>
<stop offset="1" stop-color="#FF2700"/>
</linearGradient>
<linearGradient id="paint62_linear_28_500" x1="21.245" y1="97.3031" x2="28.32" y2="119.421" gradientUnits="userSpaceOnUse">
<stop stop-color="#FF74CF"/>
<stop offset="1" stop-color="#0515CC"/>
</linearGradient>
<linearGradient id="paint63_linear_28_500" x1="3.1778e-07" y1="94.6302" x2="3.59575" y2="118.397" gradientUnits="userSpaceOnUse">
<stop stop-color="#FF74CF"/>
<stop offset="1" stop-color="#0515CC"/>
</linearGradient>
<linearGradient id="paint64_linear_28_500" x1="2.47939e-07" y1="94.6314" x2="4.51688" y2="117.995" gradientUnits="userSpaceOnUse">
<stop stop-color="#FF74CF"/>
<stop offset="1" stop-color="#0515CC"/>
</linearGradient>
<linearGradient id="paint65_linear_28_500" x1="385.219" y1="95.1329" x2="406.322" y2="160.192" gradientUnits="userSpaceOnUse">
<stop stop-color="#FF74CF"/>
<stop offset="1" stop-color="#0515CC"/>
</linearGradient>
<linearGradient id="paint66_linear_28_500" x1="358.407" y1="95.2034" x2="372.323" y2="164.306" gradientUnits="userSpaceOnUse">
<stop stop-color="#FF74CF"/>
<stop offset="1" stop-color="#0515CC"/>
</linearGradient>
<linearGradient id="paint67_linear_28_500" x1="385.059" y1="94.6813" x2="389.995" y2="127.452" gradientUnits="userSpaceOnUse">
<stop stop-color="#FF74CF"/>
<stop offset="1" stop-color="#0515CC"/>
</linearGradient>
<linearGradient id="paint68_linear_28_500" x1="384.944" y1="94.6813" x2="389.86" y2="127.458" gradientUnits="userSpaceOnUse">
<stop stop-color="#FF74CF"/>
<stop offset="1" stop-color="#0515CC"/>
</linearGradient>
<linearGradient id="paint69_linear_28_500" x1="358.405" y1="94.5671" x2="360.372" y2="112.147" gradientUnits="userSpaceOnUse">
<stop stop-color="#FF74CF"/>
<stop offset="1" stop-color="#0515CC"/>
</linearGradient>
<linearGradient id="paint70_linear_28_500" x1="358.406" y1="94.5155" x2="360.821" y2="107.479" gradientUnits="userSpaceOnUse">
<stop stop-color="#FF74CF"/>
<stop offset="1" stop-color="#0515CC"/>
</linearGradient>
<linearGradient id="paint71_linear_28_500" x1="124.751" y1="129.272" x2="124.751" y2="158.567" gradientUnits="userSpaceOnUse">
<stop stop-color="#F65A1A"/>
<stop offset="0.541667" stop-color="#EC9739"/>
<stop offset="1" stop-color="#FD3105"/>
</linearGradient>
<linearGradient id="paint72_linear_28_500" x1="100.107" y1="129.652" x2="104.362" y2="161.931" gradientUnits="userSpaceOnUse">
<stop stop-color="#FF74CF"/>
<stop offset="1" stop-color="#0515CC"/>
</linearGradient>
<linearGradient id="paint73_linear_28_500" x1="151.686" y1="108.904" x2="151.686" y2="158.469" gradientUnits="userSpaceOnUse">
<stop stop-color="#F65A1A"/>
<stop offset="0.541667" stop-color="#EC9739"/>
<stop offset="1" stop-color="#FD3105"/>
</linearGradient>
<linearGradient id="paint74_linear_28_500" x1="136.714" y1="94.1816" x2="136.714" y2="136.527" gradientUnits="userSpaceOnUse">
<stop stop-color="#F65A1A"/>
<stop offset="0.541667" stop-color="#EC9739"/>
<stop offset="1" stop-color="#FD3105"/>
</linearGradient>
<linearGradient id="paint75_linear_28_500" x1="109.75" y1="94.7311" x2="117.773" y2="140.804" gradientUnits="userSpaceOnUse">
<stop stop-color="#FF74CF"/>
<stop offset="1" stop-color="#0515CC"/>
</linearGradient>
<linearGradient id="paint76_linear_28_500" x1="117.332" y1="94.1841" x2="117.332" y2="148.123" gradientUnits="userSpaceOnUse">
<stop stop-color="#F65A1A"/>
<stop offset="0.541667" stop-color="#EC9739"/>
<stop offset="1" stop-color="#FD3105"/>
</linearGradient>
<linearGradient id="paint77_linear_28_500" x1="117.332" y1="94.1841" x2="117.332" y2="148.123" gradientUnits="userSpaceOnUse">
<stop stop-color="#F65A1A"/>
<stop offset="0.541667" stop-color="#EC9739"/>
<stop offset="1" stop-color="#FD3105"/>
</linearGradient>
<linearGradient id="paint78_linear_28_500" x1="117.332" y1="94.1841" x2="117.332" y2="148.123" gradientUnits="userSpaceOnUse">
<stop stop-color="#F65A1A"/>
<stop offset="0.541667" stop-color="#EC9739"/>
<stop offset="1" stop-color="#FD3105"/>
</linearGradient>
<linearGradient id="paint79_linear_28_500" x1="168.068" y1="129.595" x2="172.323" y2="161.874" gradientUnits="userSpaceOnUse">
<stop stop-color="#FF74CF"/>
<stop offset="1" stop-color="#0515CC"/>
</linearGradient>
<linearGradient id="paint80_linear_28_500" x1="219.647" y1="108.847" x2="219.647" y2="158.412" gradientUnits="userSpaceOnUse">
<stop stop-color="#F65A1A"/>
<stop offset="0.541667" stop-color="#EC9739"/>
<stop offset="1" stop-color="#FD3105"/>
</linearGradient>
<linearGradient id="paint81_linear_28_500" x1="177.441" y1="94.6741" x2="185.464" y2="140.747" gradientUnits="userSpaceOnUse">
<stop stop-color="#FF74CF"/>
<stop offset="1" stop-color="#0515CC"/>
</linearGradient>
<linearGradient id="paint82_linear_28_500" x1="185.292" y1="94.1271" x2="185.292" y2="148.066" gradientUnits="userSpaceOnUse">
<stop stop-color="#F65A1A"/>
<stop offset="0.541667" stop-color="#EC9739"/>
<stop offset="1" stop-color="#FD3105"/>
</linearGradient>
<linearGradient id="paint83_linear_28_500" x1="317.874" y1="129.329" x2="317.874" y2="158.624" gradientUnits="userSpaceOnUse">
<stop stop-color="#F65A1A"/>
<stop offset="0.541667" stop-color="#EC9739"/>
<stop offset="1" stop-color="#FD3105"/>
</linearGradient>
<linearGradient id="paint84_linear_28_500" x1="317.874" y1="129.329" x2="317.874" y2="158.624" gradientUnits="userSpaceOnUse">
<stop stop-color="#F65A1A"/>
<stop offset="0.541667" stop-color="#EC9739"/>
<stop offset="1" stop-color="#FD3105"/>
</linearGradient>
<linearGradient id="paint85_linear_28_500" x1="293.203" y1="129.714" x2="297.458" y2="161.993" gradientUnits="userSpaceOnUse">
<stop stop-color="#FF74CF"/>
<stop offset="1" stop-color="#0515CC"/>
</linearGradient>
<linearGradient id="paint86_linear_28_500" x1="344.803" y1="108.959" x2="344.803" y2="158.524" gradientUnits="userSpaceOnUse">
<stop stop-color="#F65A1A"/>
<stop offset="0.541667" stop-color="#EC9739"/>
<stop offset="1" stop-color="#FD3105"/>
</linearGradient>
<linearGradient id="paint87_linear_28_500" x1="302.873" y1="94.7883" x2="310.896" y2="140.862" gradientUnits="userSpaceOnUse">
<stop stop-color="#FF74CF"/>
<stop offset="1" stop-color="#0515CC"/>
</linearGradient>
<linearGradient id="paint88_linear_28_500" x1="310.455" y1="94.2413" x2="310.455" y2="148.18" gradientUnits="userSpaceOnUse">
<stop stop-color="#F65A1A"/>
<stop offset="0.541667" stop-color="#EC9739"/>
<stop offset="1" stop-color="#FD3105"/>
</linearGradient>
<linearGradient id="paint89_linear_28_500" x1="234.339" y1="95.0759" x2="251.92" y2="162.405" gradientUnits="userSpaceOnUse">
<stop stop-color="#FF74CF"/>
<stop offset="1" stop-color="#0515CC"/>
</linearGradient>
<linearGradient id="paint90_linear_28_500" x1="261.569" y1="94.2424" x2="261.569" y2="153.728" gradientUnits="userSpaceOnUse">
<stop stop-color="#F65A1A"/>
<stop offset="0.541667" stop-color="#EC9739"/>
<stop offset="1" stop-color="#FD3105"/>
</linearGradient>
<linearGradient id="paint91_linear_28_500" x1="441" y1="28" x2="441" y2="50" gradientUnits="userSpaceOnUse">
<stop stop-color="#F36B22"/>
<stop offset="1" stop-color="#EF852F"/>
</linearGradient>
<linearGradient id="paint92_linear_28_500" x1="445.428" y1="36.8555" x2="445.428" y2="50" gradientUnits="userSpaceOnUse">
<stop stop-color="#E46ACE"/>
<stop offset="1" stop-color="#2120CC"/>
</linearGradient>
<clipPath id="clip0_28_500">
<rect width="102" height="44" fill="white" transform="translate(333 43.9348)"/>
</clipPath>
<clipPath id="clip1_28_500">
<rect width="22" height="22" fill="white" transform="translate(430 28)"/>
</clipPath>
</defs>
</svg>
