<svg width="291" height="215" viewBox="0 0 291 215" fill="none" xmlns="http://www.w3.org/2000/svg">
<path d="M64.607 59.1434L10.3301 95.4512L63.7925 175.373L118.069 139.065L64.607 59.1434Z" fill="#F5F5F5"/>
<path d="M90.0216 135.284L89.4073 139.096L62.4238 135.206L63.0382 131.395L90.0216 135.284Z" fill="#E0E0E0"/>
<path d="M76.4344 121.688L80.3043 122.244L76.0135 148.811L72.1387 148.25L76.4344 121.688Z" fill="#E0E0E0"/>
<path d="M51.6023 87.9206C51.641 87.9738 46.2036 91.6842 39.4554 96.1927C32.7071 100.701 27.2069 104.32 27.1682 104.262C27.1295 104.204 32.5668 100.498 39.3151 95.9847C46.0634 91.4713 51.5394 87.8626 51.6023 87.9206Z" fill="#E0E0E0"/>
<path d="M71.542 82.9086C71.5807 82.9667 62.5346 89.0812 51.3406 96.5697C40.1467 104.058 31.0232 110.081 30.9942 110.028C30.9652 109.974 39.9919 103.85 51.2004 96.3616C62.4088 88.8732 71.5033 82.8506 71.542 82.9086Z" fill="#E0E0E0"/>
<path d="M75.5439 88.8891C75.5826 88.9471 66.5365 95.0665 55.3426 102.555C44.1487 110.043 35.0252 116.066 34.9962 116.008C34.9671 115.95 44.0035 109.835 55.2023 102.342C66.4011 94.8489 75.5052 88.831 75.5439 88.8891Z" fill="#E0E0E0"/>
<path d="M79.5441 94.8735C79.5828 94.9315 70.5367 101.051 59.3428 108.535C48.1489 116.018 39.0254 122.05 39.0254 121.992C39.0254 121.934 48.0279 115.815 59.2267 108.326C70.4255 100.838 79.5054 94.8154 79.5441 94.8735Z" fill="#E0E0E0"/>
<path d="M83.5293 100.856C83.568 100.914 74.5219 107.029 63.328 114.517C52.134 122.005 43.0106 128.028 42.9864 127.97C42.9622 127.912 52.0034 121.797 63.2119 114.309C74.4203 106.82 83.5293 100.798 83.5293 100.856Z" fill="#E0E0E0"/>
<path d="M246.101 112.697L200.518 143.189L245.416 210.309L291 179.816L246.101 112.697Z" fill="#F5F5F5"/>
<path d="M267.451 176.654L266.933 179.856L244.27 176.591L244.792 173.389L267.451 176.654Z" fill="#E0E0E0"/>
<path d="M256.038 165.234L259.289 165.704L255.685 188.014L252.43 187.545L256.038 165.234Z" fill="#E0E0E0"/>
<path d="M235.166 136.9C235.205 136.958 230.643 140.078 224.974 143.866C219.304 147.654 214.68 150.682 214.641 150.638C214.602 150.595 219.169 147.465 224.833 143.673C230.498 139.88 235.128 136.818 235.166 136.9Z" fill="#E0E0E0"/>
<path d="M251.927 132.668C251.966 132.727 244.376 137.874 234.996 144.157C225.616 150.441 217.939 155.501 217.901 155.443C217.862 155.385 225.452 150.238 234.832 143.949C244.212 137.661 251.874 132.61 251.927 132.668Z" fill="#E0E0E0"/>
<path d="M255.289 137.69C255.327 137.748 247.737 142.895 238.358 149.184C228.978 155.472 221.301 160.523 221.262 160.465C221.223 160.407 228.789 155.284 238.193 148.995C247.597 142.706 255.26 137.637 255.289 137.69Z" fill="#E0E0E0"/>
<path d="M258.646 142.705C258.685 142.763 251.09 147.911 241.715 154.199C232.34 160.488 224.658 165.538 224.619 165.48C224.581 165.422 232.171 160.28 241.55 153.986C250.93 147.693 258.612 142.657 258.646 142.705Z" fill="#E0E0E0"/>
<path d="M262.033 147.741C262.072 147.799 254.482 152.941 245.102 159.23C235.722 165.518 228.045 170.569 228.006 170.516C227.967 170.462 235.557 165.31 244.937 159.022C254.317 152.733 261.97 147.683 262.033 147.741Z" fill="#E0E0E0"/>
<path d="M173.986 62.0846L124.248 35.4824L85.0772 108.72L134.815 135.322L173.986 62.0846Z" fill="#F5F5F5"/>
<path d="M126.304 112.408L123.15 113.486L115.139 91.3453L118.298 90.2617L126.304 112.408Z" fill="#E0E0E0"/>
<path d="M131.14 96.5215L132.291 99.6997L110.3 107.232L109.148 104.053L131.14 96.5215Z" fill="#E0E0E0"/>
<path d="M146.766 63.8551C146.727 63.9276 141.687 61.3057 135.499 58.0017C129.312 54.6977 124.335 51.9549 124.373 51.8823C124.412 51.8098 129.457 54.4317 135.645 57.7357C141.832 61.0397 146.805 63.7777 146.766 63.8551Z" fill="#E0E0E0"/>
<path d="M158.705 77.0275C158.666 77.1001 150.317 72.7077 140.056 67.222C129.796 61.7363 121.514 57.2277 121.553 57.1552C121.592 57.0826 129.936 61.4702 140.197 66.9607C150.457 72.4513 158.743 76.955 158.705 77.0275Z" fill="#E0E0E0"/>
<path d="M155.773 82.508C155.734 82.5806 147.385 78.193 137.125 72.7024C126.864 67.2119 118.583 62.7082 118.621 62.6357C118.66 62.5631 127.005 66.9555 137.265 72.4412C147.525 77.9269 155.812 82.4354 155.773 82.508Z" fill="#E0E0E0"/>
<path d="M152.841 87.9879C152.803 88.0605 144.453 83.6729 134.193 78.1872C123.933 72.7015 115.651 68.2075 115.69 68.1204C115.728 68.0333 124.073 72.4354 134.333 77.9211C144.594 83.4068 152.88 87.9154 152.841 87.9879Z" fill="#E0E0E0"/>
<path d="M149.91 93.47C149.871 93.5425 141.522 89.1549 131.261 83.6692C121.001 78.1835 112.714 73.675 112.758 73.6024C112.802 73.5299 121.141 77.9175 131.402 83.4032C141.662 88.8889 149.949 93.3974 149.91 93.47Z" fill="#E0E0E0"/>
<path opacity="0.2" d="M150.166 0H148.918V21.2752H150.166V0Z" fill="black"/>
<path d="M120.406 47.0157H178.678C178.678 47.0157 173.299 21.2852 149.102 21.2852C127.58 21.2852 120.406 47.0157 120.406 47.0157Z" fill="#FF725E"/>
<path d="M150.166 0H148.918V21.2752H150.166V0Z" fill="#FF725E"/>
<path d="M279.287 212.766C279.287 212.834 216.763 212.892 139.648 212.892C62.5341 212.892 0 212.849 0 212.766C0 212.684 62.5147 212.641 139.648 212.641C216.782 212.641 279.287 212.694 279.287 212.766Z" fill="#263238"/>
<path d="M15.4604 182.47C16.2783 182.529 17.0759 182.752 17.8056 183.126C18.5354 183.5 19.1823 184.017 19.7078 184.647C20.7526 185.913 21.4924 187.403 21.8701 189C22.6876 192.058 22.1845 195.671 21.3138 198.714C18.005 197.529 15.9587 193.997 15.0251 192.14C13.5738 189.208 12.7079 183.016 15.4459 182.465" fill="#FF725E"/>
<path d="M26.079 202.424C25.5822 201.653 25.2981 200.765 25.2556 199.849C25.2131 198.933 25.4138 198.023 25.8372 197.209C26.2739 196.404 26.8667 195.693 27.5809 195.119C28.2952 194.545 29.1167 194.12 29.9974 193.867C30.8053 193.615 31.7437 193.513 32.4452 193.983C32.7614 194.222 33.0076 194.541 33.1582 194.908C33.3088 195.275 33.3583 195.675 33.3014 196.068C33.1744 196.854 32.8405 197.592 32.3339 198.206C30.723 200.387 28.7687 202.202 26.0452 202.424" fill="#FF725E"/>
<path d="M26.4471 212.646C26.3753 212.44 26.3251 212.228 26.2971 212.012C26.2101 211.557 26.094 210.972 25.9537 210.271C25.5194 208.35 25.3986 206.372 25.5957 204.412C25.8238 202.444 26.5736 200.571 27.7677 198.99C28.1326 198.516 28.5532 198.089 29.0206 197.717C29.1476 197.617 29.28 197.523 29.4173 197.437C29.461 197.4 29.5099 197.371 29.5624 197.35C28.9505 197.872 28.3915 198.454 27.8935 199.086C26.7624 200.67 26.0501 202.514 25.8231 204.446C25.5135 206.7 25.8956 208.766 26.1181 210.251C26.2342 210.991 26.331 211.591 26.3842 212.007C26.4223 212.218 26.4433 212.432 26.4471 212.646Z" fill="#263238"/>
<path d="M16.5254 187.129C16.5806 187.205 16.6261 187.288 16.6608 187.376C16.7479 187.569 16.864 187.811 16.9995 188.116C17.2946 188.759 17.7057 189.693 18.204 190.849C19.2005 193.166 20.5357 196.388 21.9289 199.977C23.322 203.567 24.5072 206.842 25.3151 209.227C25.7311 210.417 26.0552 211.384 26.2826 212.056C26.3842 212.376 26.4616 212.632 26.5245 212.83C26.559 212.919 26.5833 213.012 26.597 213.106C26.548 213.024 26.509 212.936 26.4809 212.845C26.4084 212.651 26.3164 212.4 26.1955 212.085L25.1748 209.28C24.3089 206.914 23.0995 203.644 21.7112 200.059C20.3228 196.475 19.007 193.243 18.0492 190.912C17.5654 189.765 17.193 188.832 16.9172 188.15C16.7915 187.84 16.6899 187.593 16.6125 187.395C16.5761 187.309 16.547 187.22 16.5254 187.129Z" fill="#263238"/>
<path d="M22.5145 205.883C21.5191 204.226 20.1436 202.83 18.5016 201.809C16.8597 200.789 14.9984 200.174 13.0718 200.016C12.1043 199.948 10.9143 200.112 10.4789 200.983C10.0435 201.854 10.624 202.918 11.2916 203.624C12.71 205.108 14.5359 206.139 16.5391 206.586C18.5424 207.034 20.6333 206.879 22.5484 206.14" fill="#FF725E"/>
<path d="M14.5625 202.637C14.7676 202.627 14.9732 202.635 15.1769 202.661C15.4154 202.674 15.6529 202.702 15.888 202.743C16.1637 202.797 16.4878 202.826 16.8265 202.922C17.205 203.003 17.5782 203.106 17.9439 203.232C18.3677 203.368 18.7828 203.53 19.1871 203.716C20.1171 204.132 20.9967 204.653 21.8091 205.269C22.612 205.898 23.3392 206.619 23.9763 207.416C24.2513 207.764 24.505 208.127 24.7357 208.505C24.9443 208.831 25.1349 209.169 25.3066 209.516C25.4519 209.799 25.5811 210.089 25.6936 210.387C25.7906 210.607 25.873 210.833 25.9403 211.064C26.0119 211.257 26.0654 211.456 26.0999 211.659C26.0467 211.659 25.8145 210.827 25.1614 209.589C24.9836 209.256 24.7882 208.933 24.5761 208.621C24.3404 208.255 24.0852 207.901 23.8118 207.562C22.5465 205.998 20.9329 204.752 19.1001 203.924C18.6792 203.74 18.2777 203.566 17.8859 203.44C17.5261 203.309 17.1596 203.198 16.7878 203.106C15.4333 202.734 14.5577 202.69 14.5625 202.637Z" fill="#263238"/>
<path d="M234.148 51.0257C232.726 51.3498 232.034 52.9897 231.898 54.441C231.763 55.8922 231.947 57.4305 231.337 58.756C230.65 60.246 229.01 61.3489 228.957 62.9888C228.923 63.9902 229.518 64.9238 229.489 65.9348C229.441 67.5796 227.767 68.8373 227.675 70.4627C227.612 71.6479 228.401 72.7799 228.212 73.9505C228.067 74.86 227.356 75.5759 227.056 76.4467C226.461 78.1882 227.656 80.099 229.209 81.0761C230.079 81.6231 231.058 81.9735 232.077 82.1028C233.096 82.2322 234.132 82.1374 235.111 81.825C236.09 81.5127 236.989 80.9903 237.745 80.2945C238.501 79.5986 239.096 78.746 239.488 77.7963C240.349 75.7065 240.161 73.3507 239.972 71.1013C239.392 64.0837 238.959 57.0564 238.676 50.0195" fill="#263238"/>
<path d="M230.016 75.7827C230.308 75.6008 230.537 75.3319 230.669 75.0136C230.808 74.635 230.864 74.2307 230.833 73.8284C230.78 73.295 230.662 72.7702 230.48 72.2659C230.249 71.632 230.163 70.9541 230.228 70.2825C230.349 69.5279 230.891 68.9087 231.38 68.2991C231.643 68.0008 231.863 67.667 232.033 67.3075C232.203 66.9439 232.231 66.5295 232.11 66.1465C231.859 65.358 231.085 64.7775 230.732 63.8632C230.566 63.4106 230.539 62.9187 230.654 62.4506C230.764 62.0118 230.926 61.5879 231.138 61.1881C231.546 60.468 231.871 59.7035 232.105 58.9096C232.444 57.3761 232.284 55.9104 232.517 54.7058C232.645 53.7411 233.073 52.8411 233.74 52.1323C233.929 51.9414 234.144 51.7785 234.379 51.6486C234.46 51.6064 234.546 51.5755 234.635 51.5566C234.332 51.7236 234.054 51.932 233.808 52.1758C233.19 52.8917 232.801 53.7763 232.691 54.7155C232.606 55.3571 232.561 56.0033 232.555 56.6505C232.554 57.4121 232.479 58.1719 232.333 58.9193C232.102 59.7315 231.777 60.514 231.365 61.2509C231.002 62.0104 230.669 62.9005 230.988 63.7326C231.307 64.5646 232.076 65.1403 232.371 66.0304C232.505 66.4701 232.472 66.9434 232.28 67.3607C232.091 67.7564 231.847 68.1229 231.554 68.4491C231.07 69.0586 230.543 69.6391 230.427 70.3164C230.359 70.9587 230.435 71.6081 230.649 72.2175C230.822 72.7375 230.929 73.277 230.969 73.8235C230.992 74.2445 230.918 74.6652 230.751 75.0523C230.647 75.2949 230.48 75.5054 230.267 75.6618C230.191 75.7172 230.106 75.7582 230.016 75.7827Z" fill="#455A64"/>
<path d="M226.235 87.2539L221.881 99.8313L203.673 100.799L200.635 107.571L219.646 109.506C220.544 109.875 221.508 110.058 222.479 110.044C223.45 110.03 224.408 109.819 225.295 109.424C226.182 109.029 226.98 108.459 227.64 107.747C228.3 107.036 228.81 106.197 229.137 105.283L234.212 91.1191L226.235 87.2539Z" fill="#B78876"/>
<path d="M263.874 205.931C263.874 205.931 250.533 163.545 250.247 162.171C249.991 160.923 255.085 130.423 255.733 122.504L237.704 123.176V123.355L230.041 123.781L236.901 210.43H245.197L244.374 181.671C249.493 195.405 256.826 209.404 256.826 209.404L263.874 205.931Z" fill="#B78876"/>
<path d="M244.712 191.989C244.712 191.728 244.611 182.353 244.611 182.353C244.509 182.914 241.433 174.216 241.505 173.689C241.544 173.413 244.712 191.989 244.712 191.989Z" fill="#A36957"/>
<path d="M241.157 169.568C241.115 169.741 241.097 169.918 241.104 170.096C241.077 170.579 241.077 171.064 241.104 171.547C241.104 171.852 241.148 172.181 241.186 172.539C241.225 172.897 241.278 173.274 241.36 173.666C241.532 174.521 241.76 175.365 242.043 176.191C242.642 177.947 243.31 179.48 243.779 180.593C244.002 181.077 244.195 181.536 244.36 181.904C244.419 182.075 244.5 182.238 244.602 182.388C244.576 182.221 244.527 182.058 244.456 181.904C244.345 181.585 244.176 181.125 243.973 180.559C243.547 179.427 242.908 177.879 242.313 176.142C242.032 175.329 241.801 174.498 241.622 173.656C241.535 173.269 241.477 172.897 241.423 172.548C241.37 172.2 241.331 171.871 241.307 171.581C241.249 170.981 241.225 170.497 241.21 170.159C241.22 169.96 241.202 169.762 241.157 169.568Z" fill="#A36957"/>
<path d="M236.745 210.87V210.091L245.245 209.719L245.269 212.936L244.747 212.97C242.41 213.105 232.871 213.502 231.313 213.032C229.567 212.51 236.745 210.87 236.745 210.87Z" fill="#455A64"/>
<path d="M245.381 212.742C245.333 212.745 245.284 212.745 245.236 212.742L244.82 212.771L243.282 212.839C241.985 212.892 240.191 212.941 238.212 212.95C236.234 212.96 234.434 212.926 233.133 212.887L231.599 212.824H231.178H231.033C231.081 212.821 231.13 212.821 231.178 212.824H231.599L233.138 212.853C234.434 212.853 236.229 212.892 238.207 212.882C240.186 212.873 241.985 212.839 243.282 212.805L244.82 212.766H245.381V212.742Z" fill="#263238"/>
<path d="M233.974 213.013C233.903 212.76 233.806 212.515 233.684 212.283C233.53 212.068 233.354 211.872 233.156 211.697C233.42 211.792 233.64 211.981 233.771 212.229C233.931 212.458 234.003 212.736 233.974 213.013Z" fill="#263238"/>
<path d="M236.479 211.742C236.479 211.742 236.338 211.611 236.213 211.417C236.087 211.224 236.01 211.055 236.034 211.04C236.058 211.026 236.174 211.166 236.3 211.359C236.426 211.553 236.503 211.727 236.479 211.742Z" fill="#263238"/>
<path d="M237.167 211.398C237.167 211.422 237.012 211.33 236.867 211.199C236.722 211.069 236.616 210.948 236.635 210.928C236.654 210.909 236.79 210.996 236.935 211.127C237.08 211.257 237.187 211.354 237.167 211.398Z" fill="#263238"/>
<path d="M237.596 210.576C237.454 210.628 237.302 210.648 237.151 210.634C237.003 210.654 236.852 210.639 236.711 210.59C236.852 210.538 237.002 210.519 237.151 210.532C237.301 210.512 237.453 210.527 237.596 210.576Z" fill="#263238"/>
<path d="M237.741 210.014C237.597 210.108 237.429 210.158 237.257 210.159C237.093 210.181 236.926 210.157 236.773 210.091C236.933 210.065 237.095 210.052 237.257 210.053C237.417 210.024 237.579 210.011 237.741 210.014Z" fill="#263238"/>
<path d="M236.194 211.001C236.014 211.035 235.828 211.035 235.648 211.001C235.452 210.977 235.259 210.935 235.072 210.875C234.956 210.843 234.844 210.797 234.738 210.74C234.674 210.702 234.626 210.641 234.603 210.57C234.594 210.53 234.597 210.488 234.611 210.449C234.626 210.411 234.652 210.377 234.685 210.353C234.819 210.288 234.966 210.253 235.114 210.252C235.263 210.251 235.411 210.282 235.546 210.345C235.681 210.407 235.8 210.499 235.896 210.613C235.991 210.728 236.06 210.862 236.097 211.006C236.107 211.054 236.107 211.103 236.097 211.151C236.043 210.976 235.958 210.812 235.846 210.667C235.717 210.522 235.549 210.418 235.362 210.367C235.148 210.298 234.915 210.315 234.714 210.415C234.632 210.478 234.666 210.58 234.757 210.638C234.856 210.691 234.96 210.735 235.067 210.769C235.249 210.828 235.435 210.875 235.623 210.909C235.986 210.986 236.194 210.986 236.194 211.001Z" fill="#263238"/>
<path d="M236.053 211.029C235.983 210.917 235.958 210.782 235.985 210.652C236.003 210.51 236.054 210.374 236.135 210.255C236.181 210.174 236.246 210.106 236.324 210.057C236.403 210.008 236.493 209.98 236.585 209.975C236.64 209.987 236.688 210.02 236.719 210.067C236.751 210.114 236.763 210.171 236.755 210.226C236.743 210.313 236.711 210.395 236.663 210.468C236.589 210.588 236.503 210.7 236.406 210.802C236.322 210.898 236.216 210.973 236.097 211.02C236.097 211.02 236.203 210.923 236.353 210.749C236.44 210.649 236.516 210.54 236.58 210.424C236.653 210.308 236.706 210.1 236.58 210.076C236.455 210.052 236.31 210.202 236.227 210.308C236.15 210.413 236.098 210.534 236.073 210.662C236.053 210.783 236.046 210.906 236.053 211.029Z" fill="#263238"/>
<path d="M245.201 210.431C245.201 210.431 244.959 210.431 244.577 210.455C244.08 210.515 243.609 210.713 243.218 211.027C242.827 211.34 242.532 211.758 242.366 212.231C242.241 212.593 242.231 212.84 242.212 212.835C242.192 212.83 242.212 212.772 242.212 212.666C242.224 212.51 242.253 212.356 242.299 212.206C242.453 211.711 242.749 211.272 243.15 210.944C243.557 210.622 244.05 210.428 244.568 210.388C244.728 210.368 244.891 210.368 245.051 210.388C245.103 210.396 245.153 210.41 245.201 210.431Z" fill="#263238"/>
<path d="M241.134 212.065C240.728 212.159 240.312 212.2 239.896 212.186C239.482 212.206 239.067 212.171 238.662 212.079C238.662 212.05 239.214 212.079 239.896 212.079C240.578 212.079 241.129 212.036 241.134 212.065Z" fill="#263238"/>
<path d="M242.787 212.049C242.787 212.049 242.743 212.166 242.685 212.291C242.627 212.417 242.598 212.533 242.569 212.528C242.54 212.524 242.526 212.398 242.593 212.248C242.661 212.098 242.768 212.025 242.787 212.049Z" fill="#263238"/>
<path d="M243.411 211.271C243.411 211.271 243.377 211.378 243.29 211.465C243.203 211.552 243.116 211.61 243.091 211.591C243.067 211.571 243.125 211.484 243.212 211.392C243.299 211.3 243.387 211.247 243.411 211.271Z" fill="#263238"/>
<path d="M244.302 210.913C244.302 210.942 244.186 210.942 244.06 210.986C243.934 211.029 243.847 211.097 243.823 211.078C243.799 211.058 243.871 210.942 244.026 210.889C244.181 210.836 244.312 210.884 244.302 210.913Z" fill="#263238"/>
<path d="M244.936 210.739C244.936 210.768 244.903 210.811 244.83 210.836C244.757 210.86 244.695 210.865 244.685 210.836C244.675 210.807 244.724 210.763 244.791 210.739C244.859 210.715 244.927 210.715 244.936 210.739Z" fill="#263238"/>
<path d="M256.657 210.12L256.337 209.409L263.937 205.592L265.277 208.494L264.793 208.741C262.718 209.82 254.18 214.086 252.564 214.299C250.779 214.556 256.657 210.12 256.657 210.12Z" fill="#455A64"/>
<path d="M265.306 208.287L265.18 208.365L264.808 208.558L263.434 209.255C262.273 209.83 260.657 210.609 258.853 211.431C257.049 212.254 255.394 212.955 254.195 213.454L252.768 214.029L252.381 214.179C252.336 214.2 252.289 214.214 252.24 214.223L252.371 214.16L252.753 213.99L254.166 213.386C255.36 212.873 257.005 212.157 258.81 211.335C260.614 210.512 262.234 209.748 263.405 209.187L264.789 208.524L265.171 208.345L265.306 208.287Z" fill="#263238"/>
<path d="M255.027 213.207C254.859 213.003 254.67 212.818 254.461 212.655C254.234 212.521 253.992 212.414 253.74 212.336C254.018 212.332 254.29 212.414 254.52 212.569C254.75 212.725 254.927 212.948 255.027 213.207Z" fill="#263238"/>
<path d="M256.772 211.019C256.772 211.019 256.588 210.961 256.395 210.836C256.201 210.71 256.061 210.589 256.075 210.565C256.09 210.541 256.259 210.623 256.453 210.749C256.646 210.874 256.786 210.995 256.772 211.019Z" fill="#263238"/>
<path d="M257.248 210.43C257.248 210.454 257.083 210.43 256.895 210.372C256.706 210.314 256.566 210.241 256.57 210.212C256.693 210.201 256.816 210.221 256.928 210.27C257.112 210.314 257.257 210.381 257.248 210.43Z" fill="#263238"/>
<path d="M257.315 209.502C257.315 209.531 257.155 209.633 256.933 209.739C256.804 209.816 256.661 209.864 256.512 209.879C256.512 209.85 256.671 209.749 256.889 209.642C257.019 209.566 257.164 209.518 257.315 209.502Z" fill="#263238"/>
<path d="M257.217 208.931C257.217 208.931 257.077 209.124 256.826 209.264C256.683 209.361 256.514 209.412 256.342 209.409C256.48 209.316 256.628 209.237 256.782 209.172C257.019 209.042 257.193 208.906 257.217 208.931Z" fill="#263238"/>
<path d="M256.226 210.469C256.079 210.57 255.915 210.645 255.743 210.691C255.553 210.747 255.358 210.787 255.162 210.812C255.043 210.827 254.923 210.827 254.804 210.812C254.729 210.807 254.66 210.772 254.611 210.715C254.588 210.681 254.576 210.641 254.576 210.599C254.576 210.558 254.588 210.518 254.611 210.483C254.758 210.305 254.962 210.184 255.189 210.139C255.416 210.095 255.651 210.131 255.854 210.241C255.974 210.304 256.079 210.392 256.163 210.498C256.221 210.575 256.246 210.624 256.241 210.628C256.122 210.495 255.979 210.386 255.82 210.304C255.65 210.224 255.46 210.196 255.273 210.222C255.163 210.234 255.055 210.267 254.957 210.32C254.859 210.373 254.773 210.445 254.703 210.532C254.649 210.624 254.703 210.701 254.833 210.715C254.944 210.725 255.056 210.725 255.167 210.715C255.359 210.696 255.55 210.662 255.738 210.614C256.013 210.536 256.226 210.454 256.226 210.469Z" fill="#263238"/>
<path d="M256.09 210.552C255.982 210.475 255.907 210.361 255.877 210.232C255.835 210.096 255.825 209.952 255.848 209.811C255.857 209.719 255.889 209.629 255.941 209.552C255.994 209.475 256.065 209.413 256.148 209.371C256.269 209.333 256.55 209.579 256.569 209.671C256.588 209.763 256.429 209.715 256.419 209.792C256.404 209.929 256.371 210.064 256.322 210.194C256.287 210.318 256.221 210.431 256.129 210.523C256.129 210.523 256.187 210.392 256.255 210.174C256.289 210.046 256.314 209.915 256.327 209.782C256.327 209.647 256.327 209.439 256.172 209.473C256.018 209.507 255.974 209.695 255.94 209.831C255.911 209.957 255.911 210.087 255.94 210.213C255.98 210.33 256.03 210.443 256.09 210.552Z" fill="#263238"/>
<path d="M264.193 206.25C264.193 206.25 263.961 206.332 263.632 206.531C263.202 206.788 262.852 207.16 262.621 207.605C262.397 208.054 262.302 208.556 262.345 209.056C262.374 209.443 262.466 209.665 262.447 209.675C262.416 209.627 262.391 209.575 262.374 209.52C262.327 209.372 262.292 209.22 262.273 209.065C262.204 208.55 262.293 208.026 262.529 207.563C262.765 207.1 263.136 206.719 263.593 206.473C263.73 206.397 263.875 206.335 264.024 206.289C264.078 206.268 264.135 206.255 264.193 206.25Z" fill="#263238"/>
<path d="M261.15 209.413C260.468 209.888 259.706 210.235 258.9 210.439C258.9 210.41 259.408 210.216 260.028 209.955C260.647 209.694 261.135 209.389 261.15 209.413Z" fill="#263238"/>
<path d="M262.655 208.722C262.68 208.722 262.655 208.843 262.655 208.983C262.655 209.123 262.655 209.24 262.655 209.249C262.655 209.259 262.559 209.143 262.559 208.983C262.559 208.824 262.631 208.707 262.655 208.722Z" fill="#263238"/>
<path d="M262.901 207.755C262.925 207.755 262.901 207.866 262.872 207.982C262.843 208.098 262.77 208.185 262.746 208.175C262.722 208.166 262.746 208.064 262.775 207.948C262.804 207.832 262.872 207.745 262.901 207.755Z" fill="#263238"/>
<path d="M263.57 207.043C263.57 207.072 263.473 207.116 263.376 207.208C263.279 207.3 263.226 207.396 263.202 207.387C263.178 207.377 263.202 207.242 263.308 207.13C263.415 207.019 263.565 207.043 263.57 207.043Z" fill="#263238"/>
<path d="M264.077 206.647C264.077 206.647 264.077 206.724 264.019 206.777C263.961 206.83 263.907 206.859 263.888 206.84C263.869 206.821 263.888 206.763 263.946 206.71C264.004 206.656 264.057 206.627 264.077 206.647Z" fill="#263238"/>
<path d="M254.562 108.185L253.15 90.9156L260.406 91.0462C260.406 91.0462 260.74 88.4968 259.671 82.9144C259.013 79.4894 256.735 77.39 254.176 76.1419V76.0935L253.953 76.0355C251.846 75.0897 249.597 74.5027 247.297 74.2988L238.371 74.4004C238.371 74.4004 231.555 73.5297 227.797 78.4107C226.345 80.2828 221.842 93.0973 221.842 93.0973L232.557 98.254L231.555 91.1478C231.555 91.1478 231.759 96.2997 232.417 97.9202C232.779 98.8297 233.868 101.655 233.868 101.655L233.727 110.178L254.562 108.185Z" fill="#FF725E"/>
<path d="M249.642 88.4095L248.316 94.05H260.812L259.989 84.5879L249.642 88.4095Z" fill="#FF725E"/>
<path d="M260.812 94.0504C260.266 93.9498 259.713 93.8948 259.157 93.8859C258.132 93.8279 256.739 93.7747 255.152 93.7843C253.565 93.794 252.167 93.8618 251.142 93.9392C250.587 93.9585 250.035 94.0264 249.492 94.1423C250.046 94.1864 250.602 94.1864 251.156 94.1423C252.177 94.1085 253.575 94.0698 255.152 94.0649C256.729 94.0601 258.127 94.0649 259.153 94.0891C259.706 94.1201 260.261 94.1072 260.812 94.0504Z" fill="#263238"/>
<path d="M249.1 84.5449C249.04 85.0263 249.027 85.5123 249.061 85.9962C249.061 86.8814 249.1 88.1005 249.153 89.4501C249.206 90.7998 249.269 92.0237 249.327 92.9041C249.33 93.3918 249.382 93.8781 249.482 94.3553C249.542 93.8739 249.555 93.388 249.521 92.9041C249.521 92.0188 249.482 90.7949 249.429 89.4453C249.376 88.0956 249.313 86.8766 249.255 85.9913C249.253 85.5052 249.201 85.0205 249.1 84.5449Z" fill="#263238"/>
<g opacity="0.3">
<path d="M237.732 89.4297C237.732 89.4297 240.509 110.023 248.317 109.476C248.317 109.476 251.834 109.437 252.961 107.101V106.182L237.732 89.4297Z" fill="black"/>
</g>
<g opacity="0.3">
<path d="M249.102 85.7578L247.607 95.8536L248.575 97.6241L250.171 94.1605L249.494 94.1412L249.102 85.7578Z" fill="black"/>
</g>
<path d="M233.824 101.664C233.731 101.513 233.66 101.35 233.611 101.18C233.49 100.866 233.331 100.406 233.128 99.8303C232.643 98.3303 232.244 96.804 231.933 95.2589C231.622 93.7128 231.425 92.1461 231.342 90.5713C231.313 89.9667 231.304 89.4781 231.313 89.1201C231.301 88.9452 231.312 88.7695 231.347 88.5977C231.386 88.5977 231.415 89.3426 231.517 90.5326C231.653 92.0932 231.874 93.6451 232.179 95.1815C232.537 96.981 232.968 98.5919 233.297 99.748C233.452 100.285 233.582 100.745 233.689 101.122C233.755 101.297 233.801 101.478 233.824 101.664Z" fill="#263238"/>
<path d="M236.979 107.581C236.911 107.581 236.718 107.16 236.548 106.613C236.403 106.278 236.338 105.913 236.36 105.549C236.573 105.844 236.72 106.183 236.79 106.541C236.929 106.869 236.993 107.224 236.979 107.581Z" fill="#263238"/>
<path d="M238.056 107.503C237.69 106.533 237.674 105.465 238.012 104.484C238.05 104.987 238.05 105.491 238.012 105.994C238.065 106.495 238.079 106.999 238.056 107.503Z" fill="#263238"/>
<path d="M232.773 98.4908C232.739 98.5488 230.248 97.3685 227.205 95.8495C224.162 94.3306 221.719 93.0438 221.748 92.9809C221.777 92.918 224.273 94.1032 227.316 95.6222C230.359 97.1411 232.802 98.4279 232.773 98.4908Z" fill="#263238"/>
<path d="M237.167 76.0684C237.22 73.6206 237.235 71.0471 237.235 71.0471C237.235 71.0471 234.095 70.4424 233.548 66.3112C233.026 62.3735 234.487 53.1291 234.487 53.1291C239.073 51.3973 243.838 52.9694 246.977 56.6846L246.198 76.5521C246.107 78.8596 244.051 80.6205 241.583 80.5044C239.087 80.3834 237.114 78.4001 237.167 76.0684Z" fill="#B78876"/>
<path d="M234.244 60.5156C234.24 60.6512 234.288 60.7834 234.378 60.885C234.468 60.9866 234.593 61.05 234.728 61.0623C234.797 61.0689 234.866 61.0615 234.932 61.0405C234.998 61.0194 235.058 60.9852 235.11 60.94C235.162 60.8947 235.205 60.8393 235.235 60.7772C235.265 60.715 235.282 60.6474 235.284 60.5785C235.289 60.4434 235.241 60.3119 235.151 60.2111C235.061 60.1102 234.935 60.0478 234.801 60.0367C234.732 60.0263 234.661 60.0308 234.594 60.0501C234.527 60.0694 234.465 60.1029 234.413 60.1484C234.36 60.1939 234.317 60.2502 234.288 60.3136C234.259 60.377 234.244 60.4459 234.244 60.5156Z" fill="#263238"/>
<path d="M234.052 59.8251C234.115 59.8929 234.536 59.6075 235.092 59.6268C235.648 59.6462 236.059 59.9364 236.127 59.8687C236.195 59.801 236.098 59.7139 235.919 59.5736C235.677 59.3981 235.386 59.3018 235.087 59.2979C234.792 59.2866 234.502 59.3715 234.26 59.5397C234.081 59.6703 234.018 59.7913 234.052 59.8251Z" fill="#263238"/>
<path d="M240.006 60.875C240.001 61.0109 240.048 61.1437 240.138 61.2456C240.228 61.3474 240.354 61.4105 240.49 61.4216C240.559 61.4322 240.63 61.4275 240.698 61.4079C240.765 61.3884 240.827 61.3544 240.88 61.3084C240.933 61.2624 240.975 61.2054 241.004 61.1415C241.033 61.0775 241.047 61.008 241.046 60.9379C241.052 60.8025 241.004 60.6703 240.914 60.5692C240.824 60.4681 240.698 60.406 240.563 60.3961C240.494 60.3856 240.423 60.3902 240.356 60.4095C240.289 60.4288 240.227 60.4623 240.174 60.5078C240.122 60.5532 240.079 60.6096 240.05 60.673C240.021 60.7364 240.006 60.8053 240.006 60.875Z" fill="#263238"/>
<path d="M239.968 60.1822C240.031 60.2548 240.451 59.9694 241.008 59.9839C241.564 59.9984 241.975 60.2935 242.048 60.2258C242.12 60.158 242.014 60.071 241.835 59.9355C241.597 59.7554 241.307 59.657 241.008 59.6549C240.712 59.6461 240.421 59.7307 240.176 59.8968C240.002 60.0274 239.939 60.1484 239.968 60.1822Z" fill="#263238"/>
<path d="M237.799 64.3386C237.502 64.2365 237.193 64.1731 236.88 64.1499C236.735 64.1499 236.6 64.0967 236.58 63.9999C236.569 63.8487 236.606 63.6978 236.687 63.5694L237.141 62.481C237.564 61.5559 237.912 60.5982 238.181 59.6172C237.686 60.506 237.262 61.4329 236.914 62.3891C236.764 62.7712 236.614 63.1389 236.474 63.4872C236.38 63.66 236.349 63.8601 236.387 64.0532C236.406 64.1056 236.437 64.153 236.477 64.1916C236.517 64.2301 236.566 64.2589 236.619 64.2757C236.699 64.2989 236.782 64.3119 236.866 64.3144C237.175 64.3619 237.488 64.3701 237.799 64.3386Z" fill="#263238"/>
<path d="M237.234 71.0471C239.17 71.1246 241.089 70.6641 242.778 69.7168C242.778 69.7168 241.37 72.508 237.263 72.0194L237.234 71.0471Z" fill="#A36957"/>
<path d="M241.787 58.5327C241.67 58.7117 241.235 58.6343 240.751 58.5327C240.268 58.4311 239.842 58.3489 239.784 58.1408C239.726 57.9328 240.234 57.6571 240.882 57.7877C241.53 57.9183 241.903 58.3779 241.787 58.5327Z" fill="#263238"/>
<path d="M236.141 57.7108C236.098 57.9189 235.633 57.9962 235.101 58.0204C234.569 58.0446 234.1 58.0204 234.037 57.8076C233.974 57.5947 234.424 57.2948 235.067 57.2658C235.711 57.2368 236.185 57.5125 236.141 57.7108Z" fill="#263238"/>
<path d="M237.811 65.6982C237.75 65.6837 237.685 65.6901 237.628 65.7164C237.571 65.7427 237.525 65.7874 237.496 65.8433C237.469 65.8926 237.454 65.9483 237.455 66.0048C237.456 66.0613 237.471 66.1166 237.5 66.1654C237.528 66.2141 237.569 66.2545 237.618 66.2826C237.667 66.3106 237.723 66.3254 237.779 66.3254C237.836 66.3254 237.891 66.3106 237.94 66.2826C237.989 66.2545 238.03 66.2141 238.059 66.1654C238.087 66.1166 238.103 66.0613 238.103 66.0048C238.104 65.9483 238.09 65.8926 238.062 65.8433C238.027 65.7783 237.972 65.7271 237.904 65.6981C237.836 65.6691 237.761 65.664 237.69 65.6837" fill="#A36957"/>
<path d="M237.94 65.756C237.94 65.7318 237.848 65.5916 237.601 65.6448C237.527 65.664 237.46 65.7023 237.405 65.7558C237.351 65.8093 237.312 65.8761 237.291 65.9495C237.265 66.0421 237.268 66.1404 237.298 66.2317C237.328 66.3231 237.385 66.4033 237.461 66.4623C237.541 66.5174 237.636 66.5469 237.734 66.5469C237.832 66.5469 237.927 66.5174 238.007 66.4623C238.072 66.419 238.122 66.3581 238.153 66.287C238.184 66.2158 238.194 66.1374 238.181 66.0608C238.133 65.8044 237.944 65.7657 237.935 65.7996C237.925 65.8334 238.002 65.9205 237.988 66.0705C237.985 66.1075 237.972 66.1432 237.952 66.1744C237.932 66.2056 237.904 66.2314 237.872 66.2494C237.834 66.2711 237.792 66.2825 237.749 66.2825C237.705 66.2825 237.663 66.2711 237.625 66.2494C237.591 66.2208 237.566 66.1839 237.55 66.1424C237.535 66.1009 237.531 66.0561 237.538 66.0124C237.544 65.9742 237.558 65.9379 237.581 65.9067C237.604 65.8755 237.634 65.8504 237.669 65.8334C237.804 65.7512 237.925 65.7899 237.94 65.756Z" fill="#263238"/>
<path d="M245.1 61.5372C244.616 62.6691 243.416 63.5447 243.581 64.7686C243.687 65.5571 244.195 66.2924 244.099 67.0857C243.973 68.0532 242.942 68.7692 242.792 69.7609C242.613 70.9751 243.799 71.9184 244.268 73.0503C244.96 74.7048 244.079 76.5624 244.055 78.3716C244.084 79.7452 244.609 81.0619 245.534 82.0777C246.459 83.0934 247.721 83.7395 249.086 83.896C250.189 83.9879 251.432 83.6541 251.988 82.706C252.472 81.9223 252.366 80.9258 252.646 80.0599C253.072 78.7634 254.306 77.8153 254.581 76.4801C255.065 74.0614 252.114 72.0296 252.308 69.5529C252.39 68.4934 253.043 67.5743 253.319 66.5488C253.494 65.8748 253.508 65.1688 253.358 64.4886C253.209 63.8084 252.9 63.1733 252.458 62.6353C251.727 61.7694 250.673 61.184 250.039 60.2552C249.338 59.1861 249.313 57.8365 249.071 56.5739C248.747 55.0393 248.038 53.612 247.012 52.4256C245.986 51.2391 244.676 50.3322 243.204 49.7896C241.732 49.247 240.147 49.0864 238.596 49.3228C237.045 49.5592 235.58 50.1849 234.337 51.1414C234.337 51.1414 233.635 54.3293 236.91 54.8663C240.185 55.4032 241.699 54.784 242.067 56.095C241.98 56.6351 242.023 57.1879 242.191 57.7084C242.359 58.2289 242.648 58.7021 243.034 59.0894C244.369 60.531 245.642 60.2214 245.1 61.5372Z" fill="#263238"/>
<path d="M250.3 83.6494C250.199 83.6528 250.098 83.6431 250 83.6204C249.716 83.5701 249.438 83.494 249.168 83.393C248.169 83.01 247.293 82.363 246.633 81.5209C246.17 80.9398 245.807 80.2859 245.559 79.5859C245.276 78.7886 245.128 77.9501 245.119 77.1043C245.109 76.172 245.226 75.2427 245.467 74.3421C245.599 73.8664 245.761 73.3995 245.951 72.9441C246.151 72.4907 246.327 72.0273 246.478 71.5557C246.611 71.091 246.611 70.5982 246.478 70.1335C246.337 69.676 246.154 69.2323 245.932 68.808C245.707 68.3873 245.518 67.9488 245.366 67.4971C245.217 67.0499 245.182 66.5727 245.264 66.1087C245.457 65.1993 246.009 64.522 246.338 63.8302C246.651 63.1899 246.801 62.4818 246.773 61.7695C246.729 60.727 246.351 59.7263 245.694 58.9154C245.44 58.6313 245.167 58.3646 244.877 58.1172C245.216 58.3078 245.519 58.5567 245.772 58.8525C246.476 59.6622 246.892 60.6833 246.952 61.755C246.992 62.4984 246.846 63.24 246.527 63.9125C246.193 64.6284 245.656 65.3105 245.491 66.1426C245.327 66.9746 245.719 67.8502 246.149 68.6919C246.384 69.1284 246.575 69.5869 246.72 70.0609C246.863 70.567 246.863 71.1028 246.72 71.6089C246.559 72.0969 246.373 72.5765 246.164 73.0456C245.974 73.4912 245.812 73.9485 245.68 74.4146C245.44 75.2925 245.321 76.1991 245.327 77.1091C245.312 78.659 245.812 80.17 246.749 81.4048C247.376 82.2364 248.21 82.8886 249.168 83.2963C249.889 83.5768 250.305 83.6204 250.3 83.6494Z" fill="#455A64"/>
<path d="M249.816 59.239C249.58 59.3001 249.339 59.3358 249.095 59.3455C248.431 59.4165 247.761 59.3986 247.102 59.2923C246.603 59.2183 246.123 59.0454 245.691 58.7838C245.259 58.5221 244.884 58.1769 244.587 57.7685C244.31 57.2516 244.09 56.7068 243.929 56.1431C243.722 55.58 243.334 55.1017 242.826 54.7837C241.766 54.1113 240.523 54.0291 239.44 53.8985C238.44 53.8486 237.47 53.5457 236.619 53.0181C236.05 52.6407 235.638 52.0675 235.463 51.4072C235.421 51.2282 235.41 51.0433 235.429 50.8605C235.429 50.7348 235.458 50.6719 235.468 50.6719C235.474 50.9115 235.505 51.1498 235.56 51.383C235.76 52.0004 236.171 52.5278 236.721 52.8729C237.556 53.3599 238.498 53.6325 239.464 53.6663C240.547 53.792 241.834 53.8549 242.966 54.5709C243.52 54.9187 243.942 55.4413 244.166 56.056C244.317 56.6054 244.527 57.1372 244.79 57.6427C245.353 58.4156 246.197 58.9367 247.141 59.0939C247.779 59.2125 248.428 59.2563 249.076 59.2245C249.323 59.2107 249.57 59.2155 249.816 59.239Z" fill="#455A64"/>
<path d="M248.616 55.3016C248.434 55.3625 248.242 55.3904 248.05 55.3838C247.148 55.3899 246.28 55.0426 245.631 54.4163C245.335 54.1196 245.083 53.7825 244.882 53.415C244.446 52.6797 244.025 51.7751 243.121 51.3977C242.249 51.1053 241.321 51.0241 240.412 51.1607C239.645 51.2684 238.866 51.2684 238.099 51.1607C237.566 51.0867 237.063 50.8656 236.648 50.5222C236.541 50.4286 236.447 50.3213 236.368 50.2029C236.31 50.119 236.285 50.0755 236.295 50.0723C236.295 50.0723 236.43 50.2271 236.711 50.4447C237.125 50.739 237.605 50.9252 238.109 50.9865C238.862 51.0715 239.623 51.0585 240.373 50.9478C241.322 50.7929 242.294 50.876 243.203 51.1897C243.67 51.3996 244.07 51.7344 244.359 52.1572C244.614 52.5343 244.848 52.9251 245.061 53.3279C245.251 53.6795 245.487 54.0047 245.762 54.2954C246.005 54.5412 246.284 54.7484 246.589 54.9097C247.039 55.1447 247.534 55.2815 248.04 55.3113C248.413 55.3064 248.611 55.2774 248.616 55.3016Z" fill="#455A64"/>
<path d="M251.741 82.6036C251.717 82.6036 251.872 82.2843 252.051 81.6845C252.293 80.8424 252.401 79.9673 252.37 79.0916C252.335 77.7953 251.981 76.5276 251.34 75.4006C250.987 74.7669 250.45 74.2009 250.01 73.5043C249.777 73.1495 249.613 72.754 249.526 72.3385C249.45 71.9011 249.486 71.4516 249.632 71.0324C249.903 70.1955 250.387 69.494 250.493 68.7249C250.6 67.9557 250.232 67.2736 249.864 66.6303C249.675 66.3172 249.502 65.9942 249.347 65.6628C249.205 65.3413 249.112 65.0006 249.071 64.6517C249.026 64.037 249.045 63.4193 249.129 62.8087C249.284 61.9455 249.204 61.0566 248.897 60.2351C248.76 59.9473 248.566 59.6905 248.326 59.4805C248.326 59.4805 248.35 59.4805 248.384 59.5095C248.442 59.5379 248.494 59.5755 248.539 59.6208C248.728 59.7784 248.882 59.9746 248.989 60.1964C249.339 61.025 249.448 61.9354 249.303 62.8232C249.237 63.4224 249.229 64.0267 249.279 64.6275C249.398 65.3034 249.666 65.9444 250.063 66.5045C250.269 66.8314 250.446 67.1763 250.59 67.5349C250.743 67.922 250.793 68.3418 250.735 68.7539C250.619 69.6005 250.121 70.3164 249.869 71.1049C249.737 71.4854 249.702 71.8928 249.768 72.2901C249.852 72.6744 250.006 73.0401 250.222 73.3689C250.634 74.0413 251.19 74.6169 251.543 75.2797C252.191 76.4447 252.537 77.7536 252.549 79.0868C252.565 79.9791 252.427 80.8675 252.143 81.7135C252.066 81.9425 251.972 82.1656 251.862 82.3811C251.833 82.4606 251.792 82.5356 251.741 82.6036Z" fill="#455A64"/>
<path d="M232.038 172.741C232.038 172.741 228.778 141.859 228.589 130.447C228.4 119.036 233.721 107.774 233.721 107.774L254.561 106.908C254.561 106.908 258.683 118.484 258.755 123.356C258.901 132.808 256.245 142.14 256.549 149.638L257.246 172.761" fill="#263238"/>
<path d="M257.949 134.771C257.84 134.866 257.725 134.953 257.605 135.033L257.417 135.163L257.213 135.362C257.034 135.517 256.872 135.69 256.73 135.879C256.057 136.702 255.569 138.177 255.099 140.01C254.86 141.027 254.506 142.014 254.045 142.952C253.905 143.208 253.743 143.453 253.561 143.682C253.474 143.798 253.392 143.924 253.29 144.035L252.971 144.355C252.514 144.782 251.983 145.123 251.404 145.361C250.238 145.873 248.917 146.115 247.717 146.72C246.488 147.381 245.539 148.463 245.042 149.768C244.452 151.079 244.075 152.452 243.591 153.739C243.107 155.026 242.454 156.255 241.414 157.038C240.42 157.729 239.239 158.102 238.028 158.107C236.906 158.175 235.866 158.141 234.932 158.282C234.092 158.369 233.288 158.672 232.6 159.162C232.098 159.555 231.721 160.086 231.517 160.691C231.387 161.072 231.359 161.48 231.435 161.876C231.493 162.147 231.565 162.277 231.551 162.282C231.473 162.161 231.417 162.026 231.386 161.886C231.284 161.482 231.297 161.058 231.425 160.662C231.617 160.027 231.996 159.466 232.513 159.051C233.219 158.518 234.054 158.184 234.932 158.083C235.9 157.928 236.93 157.948 238.038 157.875C239.213 157.868 240.358 157.503 241.322 156.83C242.3 155.976 243.022 154.868 243.407 153.628C243.891 152.356 244.244 150.977 244.859 149.642C245.379 148.284 246.372 147.159 247.655 146.473C248.903 145.854 250.223 145.617 251.36 145.124C251.917 144.893 252.428 144.566 252.869 144.156L253.174 143.851C253.271 143.745 253.353 143.624 253.44 143.513C253.611 143.293 253.761 143.058 253.89 142.811C254.354 141.887 254.712 140.913 254.959 139.909C255.443 138.08 255.97 136.586 256.681 135.758C256.823 135.57 256.985 135.398 257.165 135.246C257.242 135.178 257.31 135.11 257.378 135.057L257.576 134.931C257.697 134.87 257.821 134.817 257.949 134.771Z" fill="#FAFAFA"/>
<path d="M258.074 120.482C258.096 120.618 258.106 120.756 258.103 120.894C258.101 121.293 258.052 121.691 257.958 122.079C257.541 123.494 256.723 124.758 255.602 125.717C254.862 126.397 254.051 126.995 253.183 127.502C252.249 128.053 251.219 128.58 250.16 129.18C249.047 129.777 248.01 130.506 247.073 131.352C246.112 132.306 245.32 133.417 244.732 134.637C244.139 135.873 243.461 137.068 242.705 138.212C242.32 138.745 241.876 139.232 241.379 139.663C240.89 140.079 240.353 140.435 239.778 140.722C238.739 141.233 237.656 141.649 236.542 141.966C235.507 142.285 234.539 142.57 233.698 142.933C232.934 143.237 232.207 143.627 231.53 144.094C231.022 144.447 230.564 144.869 230.171 145.347C229.842 145.762 229.567 146.217 229.354 146.702C229.388 146.567 229.433 146.436 229.489 146.31C229.648 145.944 229.851 145.6 230.094 145.284C230.48 144.786 230.936 144.346 231.448 143.978C232.127 143.494 232.859 143.088 233.63 142.769C234.562 142.389 235.513 142.058 236.479 141.777C237.577 141.453 238.645 141.035 239.672 140.529C240.216 140.245 240.727 139.901 241.196 139.503C241.673 139.078 242.101 138.601 242.473 138.081C243.219 136.943 243.889 135.757 244.48 134.53C245.087 133.283 245.906 132.151 246.899 131.183C247.853 130.324 248.909 129.587 250.043 128.987C251.108 128.392 252.138 127.874 253.072 127.327C253.937 126.838 254.748 126.257 255.49 125.596C256.602 124.665 257.427 123.439 257.87 122.059C257.995 121.543 258.063 121.014 258.074 120.482Z" fill="#FAFAFA"/>
<path d="M228.695 132.062C228.676 132.032 228.661 132 228.652 131.966C228.615 131.872 228.585 131.777 228.56 131.68C228.477 131.295 228.493 130.896 228.608 130.519C228.879 129.552 229.948 128.308 231.67 127.694C232.531 127.399 233.504 127.21 234.52 126.959C235.363 126.819 236.161 126.48 236.847 125.969C237.533 125.458 238.087 124.791 238.462 124.022C238.737 123.459 238.978 122.879 239.183 122.286C239.561 120.998 240.075 119.754 240.716 118.575C241.451 117.417 242.566 116.55 243.87 116.123C245.057 115.738 246.267 115.431 247.494 115.204C248.588 114.994 249.648 114.632 250.643 114.13C251.485 113.648 252.212 112.988 252.771 112.195C253.597 111.05 254.068 109.687 254.126 108.277C254.128 107.759 254.094 107.242 254.024 106.729C254.17 107.231 254.237 107.753 254.223 108.277C254.204 109.718 253.748 111.119 252.916 112.296C252.35 113.116 251.608 113.798 250.744 114.294C249.736 114.815 248.66 115.192 247.547 115.412C246.332 115.642 245.133 115.951 243.957 116.336C242.705 116.746 241.635 117.579 240.929 118.692C240.298 119.854 239.791 121.08 239.415 122.349C239.206 122.952 238.959 123.542 238.675 124.114C238.388 124.664 238.023 125.169 237.591 125.614C236.742 126.389 235.696 126.916 234.568 127.138C233.542 127.399 232.575 127.564 231.728 127.844C230.05 128.415 228.985 129.59 228.7 130.529C228.583 130.891 228.551 131.275 228.608 131.651C228.649 131.785 228.678 131.923 228.695 132.062Z" fill="#FAFAFA"/>
<path d="M256.284 158.186C256.303 158.286 256.315 158.388 256.317 158.49C256.327 158.783 256.296 159.076 256.226 159.361C255.922 160.41 255.278 161.329 254.397 161.973C253.808 162.442 253.157 162.827 252.462 163.115C251.722 163.429 250.904 163.681 250.043 163.947C249.149 164.208 248.275 164.531 247.426 164.914C246.544 165.336 245.754 165.926 245.099 166.651C244.393 167.386 243.784 168.194 243.106 168.91C242.458 169.604 241.706 170.191 240.876 170.652C239.464 171.422 237.884 171.834 236.276 171.851C235.198 171.863 234.127 171.685 233.112 171.324C232.836 171.229 232.568 171.114 232.309 170.981C232.215 170.942 232.125 170.891 232.043 170.831C232.14 170.858 232.236 170.891 232.328 170.932C232.594 171.046 232.865 171.146 233.141 171.232C234.155 171.55 235.214 171.699 236.276 171.672C237.849 171.632 239.389 171.212 240.765 170.449C241.569 169.993 242.298 169.417 242.927 168.741C243.59 168.035 244.195 167.232 244.915 166.477C245.609 165.724 246.444 165.116 247.373 164.687C248.234 164.302 249.122 163.979 250.029 163.72C250.88 163.458 251.693 163.236 252.447 162.917C253.122 162.64 253.757 162.274 254.334 161.828C255.201 161.216 255.847 160.341 256.177 159.332C256.248 158.954 256.284 158.57 256.284 158.186Z" fill="#FAFAFA"/>
<path d="M253.909 94.0689L249.874 94.1657C249.719 94.9792 249.41 95.7557 248.965 96.4538C245.578 90.6005 242.981 82.7638 242.332 79.6146C242.429 79.3001 242.54 78.9518 242.681 78.5648C242.781 77.977 242.763 77.375 242.628 76.7943C242.511 76.0929 242.318 75.1496 242.26 74.7142C242.081 73.379 241.863 73.171 241.399 73.321C240.77 73.529 241.66 77.0604 241.142 77.1378C240.862 77.1765 240.523 75.9671 240.427 74.9754C240.33 73.9837 239.875 70.9264 239.551 70.7233C239.067 70.4233 238.646 70.8974 238.772 71.8843C238.898 72.8711 239.048 75.8703 238.525 75.9139C238.003 75.9574 237.558 70.8877 237.558 70.8877C237.558 70.8877 237.64 69.7848 237.031 69.809C235.937 69.8574 236.794 75.1979 236.885 75.7059C236.953 76.0542 236.402 76.1219 236.334 75.7397C236.266 75.3576 236.015 70.6749 234.883 70.7136C234.022 70.7136 235.546 75.1109 235.062 76.1267C234.578 77.1426 234.249 72.6824 233.432 72.7405C233.127 72.7647 232.899 72.8227 233.461 75.3431C233.998 77.3455 234.644 79.3173 235.396 81.2496C236.692 88.2398 242.381 110.603 251.296 106.511C256.289 104.218 258.311 94.0689 258.311 94.0689H253.909Z" fill="#B78876"/>
<path d="M236.712 76.0444C236.75 76.0541 236.79 76.0541 236.828 76.0444C236.886 76.0266 236.936 75.9886 236.969 75.9371C237.002 75.8857 237.015 75.8243 237.007 75.7639C237.007 75.4639 236.949 75.0286 236.881 74.4626C236.768 73.7805 236.693 73.0924 236.659 72.4018C236.659 71.9955 236.659 71.5601 236.683 71.1005C236.69 70.8669 236.714 70.6341 236.755 70.4039C236.794 70.1863 236.939 69.9202 237.108 69.9637H237.137C237.307 69.9637 237.442 70.0895 237.495 70.2927C237.555 70.5032 237.578 70.7225 237.563 70.9409C237.663 72.2957 237.836 73.6441 238.081 74.9802C238.12 75.1592 238.158 75.343 238.216 75.5268C238.242 75.6209 238.274 75.713 238.313 75.8026C238.338 75.8524 238.365 75.9008 238.395 75.9477C238.417 75.983 238.447 76.0128 238.482 76.0347C238.517 76.0565 238.557 76.0698 238.598 76.0735C238.669 76.0657 238.735 76.0372 238.79 75.9916C238.844 75.9459 238.883 75.8852 238.903 75.8171C238.945 75.7225 238.976 75.6235 238.995 75.522C239.033 75.327 239.059 75.1299 239.072 74.9318C239.117 74.1258 239.105 73.3176 239.039 72.5131C238.977 72.1114 238.961 71.7042 238.99 71.2989C239.008 71.1238 239.093 70.9625 239.227 70.849C239.258 70.8306 239.293 70.8189 239.329 70.8147C239.365 70.8105 239.401 70.814 239.435 70.8248C239.476 70.8347 239.516 70.851 239.551 70.8732C239.576 70.8916 239.594 70.9168 239.605 70.9457C239.757 71.338 239.869 71.7449 239.938 72.1599C240.025 72.5856 240.098 73.0259 240.166 73.4661C240.233 73.9063 240.296 74.3513 240.35 74.8012C240.391 75.2655 240.465 75.7262 240.572 76.1799C240.629 76.4119 240.702 76.6398 240.79 76.862C240.839 76.9864 240.908 77.1023 240.993 77.2054C241.026 77.2483 241.07 77.2811 241.12 77.2999C241.171 77.3187 241.226 77.3229 241.278 77.3119C241.327 77.2957 241.371 77.2672 241.406 77.229C241.441 77.1909 241.465 77.1445 241.477 77.0942C241.534 76.847 241.552 76.5923 241.53 76.3395C241.53 76.0977 241.501 75.8558 241.477 75.6236C241.443 75.2172 241.404 74.8157 241.39 74.419C241.377 74.2241 241.377 74.0286 241.39 73.8337C241.399 73.7474 241.42 73.6628 241.453 73.5822C241.463 73.5556 241.477 73.531 241.496 73.5096H241.559C241.878 73.379 241.985 73.824 242.072 74.182C242.159 74.54 242.193 74.9463 242.27 75.3285C242.396 76.088 242.56 76.8475 242.643 77.5731C242.699 77.9205 242.685 78.2756 242.604 78.618C242.488 78.9663 242.372 79.3097 242.26 79.6532V79.6871V79.7161C242.827 82.0926 243.549 84.4294 244.423 86.7111C245.187 88.7767 245.956 90.5811 246.629 92.0323C247.301 93.4835 247.911 94.6203 248.327 95.3847L248.81 96.2506C248.863 96.3538 248.926 96.4511 248.999 96.5408C248.958 96.4334 248.908 96.3298 248.849 96.2312L248.365 95.346C247.969 94.5671 247.398 93.411 246.74 91.9597C246.082 90.5085 245.337 88.7041 244.592 86.6385C243.74 84.3602 243.032 82.0304 242.473 79.6629V79.7306C242.585 79.392 242.696 79.0485 242.812 78.7051C242.913 78.3281 242.932 77.9341 242.87 77.5489C242.783 76.7894 242.623 76.0541 242.497 75.2898C242.425 74.9125 242.377 74.5255 242.299 74.1288C242.294 73.925 242.26 73.723 242.198 73.529C242.142 73.4109 242.048 73.3154 241.931 73.2581C241.807 73.2174 241.673 73.2174 241.549 73.2581H241.472C241.431 73.2712 241.393 73.2926 241.361 73.3209C241.307 73.3665 241.265 73.4247 241.24 73.4903C241.195 73.595 241.168 73.7059 241.157 73.8192C241.143 74.0286 241.143 74.2387 241.157 74.4481C241.157 74.8544 241.215 75.2608 241.249 75.6671C241.249 75.9042 241.288 76.1509 241.298 76.3686C241.317 76.5868 241.306 76.8066 241.264 77.0216C241.264 77.07 241.225 77.0603 241.264 77.0845L241.235 77.0555C241.173 76.9764 241.124 76.8883 241.09 76.7943C241.005 76.585 240.936 76.37 240.882 76.1509C240.776 75.7103 240.703 75.2624 240.664 74.8109C240.612 74.3562 240.55 73.9063 240.475 73.4612C240.408 73.0162 240.33 72.5808 240.243 72.1454C240.17 71.7023 240.047 71.2689 239.876 70.8538C239.842 70.7845 239.79 70.7258 239.726 70.6845C239.669 70.6518 239.609 70.6259 239.547 70.6071C239.478 70.589 239.406 70.5848 239.335 70.5948C239.265 70.6048 239.197 70.6287 239.135 70.6652C239.036 70.7397 238.952 70.834 238.891 70.9423C238.829 71.0505 238.791 71.1702 238.777 71.294C238.746 71.5138 238.746 71.737 238.777 71.9568C238.777 72.1648 238.826 72.368 238.84 72.5711C238.908 73.3626 238.922 74.1577 238.884 74.9512C238.873 75.1397 238.848 75.3272 238.811 75.5123C238.797 75.5988 238.773 75.6833 238.739 75.7639C238.726 75.7958 238.708 75.8252 238.685 75.8509C238.685 75.8945 238.652 75.8509 238.656 75.909C238.656 75.8606 238.656 75.909 238.656 75.8461C238.635 75.8134 238.616 75.7795 238.598 75.7445C238.565 75.6671 238.536 75.58 238.507 75.4978C238.453 75.3237 238.415 75.1447 238.376 74.9705C238.124 73.6459 237.941 72.3089 237.829 70.9651C237.844 70.7219 237.816 70.478 237.747 70.2443C237.715 70.1224 237.65 70.0118 237.558 69.925C237.511 69.8793 237.455 69.8437 237.393 69.8204C237.332 69.7971 237.266 69.7866 237.2 69.7896H237.229C237.148 69.7776 237.064 69.79 236.989 69.8253C236.914 69.8606 236.851 69.9171 236.809 69.9879C236.737 70.1033 236.687 70.2314 236.663 70.3652C236.623 70.6051 236.6 70.8476 236.596 71.0909C236.596 71.5746 236.596 71.9955 236.596 72.4067C236.642 73.1016 236.73 73.7931 236.862 74.4771C236.944 75.0383 237.007 75.4736 237.036 75.7687C237.045 75.8204 237.036 75.8737 237.011 75.9195C236.985 75.9654 236.944 76.001 236.896 76.0203C236.751 76.0348 236.707 76.0396 236.712 76.0444Z" fill="#A36957"/>
<path d="M205.205 100.731C204.261 100.711 203.319 100.82 202.404 101.055C199.903 101.713 195.593 104.325 195.414 107.552H198.549C198.549 107.552 196.793 111.286 197.306 110.938C198.645 110.038 201.306 107.334 201.306 107.334L205.205 100.731Z" fill="#B78876"/>
<path d="M247.934 44.5045C247.861 44.5045 247.581 41.9213 247.3 38.6995C247.019 35.4777 246.845 32.8945 246.913 32.8945C246.981 32.8945 247.266 35.4777 247.547 38.6995C247.827 41.9213 248.001 44.5045 247.934 44.5045Z" fill="#263238"/>
<path d="M261.677 33.0922C261.73 33.1309 259.616 36.2027 256.951 39.9517C254.286 43.7007 252.075 46.7242 252.017 46.6661C251.959 46.6081 254.078 43.5556 256.743 39.8066C259.408 36.0575 261.619 33.0535 261.677 33.0922Z" fill="#263238"/>
<path d="M267.385 47.0145C267.385 47.0822 264.928 47.6482 261.871 48.2771C258.813 48.9059 256.317 49.3607 256.303 49.2929C256.288 49.2252 258.755 48.6592 261.818 48.0304C264.88 47.4015 267.352 46.9468 267.385 47.0145Z" fill="#263238"/>
<path d="M102.879 113.457L85.7545 201.402L83.5293 212.916L197.694 212.364C202.821 212.34 207.369 207.788 209.009 201.025L229.258 118C230.511 112.867 227.764 107.526 223.874 107.531L108.297 107.652C105.782 107.647 103.527 110.027 102.879 113.457Z" fill="#FF725E"/>
<g opacity="0.5">
<path d="M102.879 113.457L85.7545 201.402L83.5293 212.916L197.694 212.364C202.821 212.34 207.369 207.788 209.009 201.025L229.258 118C230.511 112.867 227.764 107.526 223.874 107.531L108.297 107.652C105.782 107.647 103.527 110.027 102.879 113.457Z" fill="black"/>
</g>
<path d="M186.756 195.433L174.662 98.0013C174.179 94.0103 170.991 91.0305 167.232 91.045L140.723 91.1272C139.738 91.1383 138.765 91.3499 137.864 91.7491C136.964 92.1483 136.154 92.7268 135.484 93.4492L122.906 106.834L49.1831 107.231C44.6794 107.255 41.2158 111.522 41.8108 116.311L53.0386 206.361C53.5223 210.347 56.7102 213.322 60.4593 213.317L188.967 213.061C203.276 213.356 204.645 209.133 204.645 209.133C188.217 212.766 186.756 195.457 186.756 195.433Z" fill="#FF725E"/>
<g opacity="0.5">
<path d="M131.342 175.949L127.007 180.603L93.6289 150.572L97.9633 145.918L131.342 175.949Z" fill="white"/>
<path d="M125.193 144.887L129.983 149.197L99.7822 181.632L94.9883 177.322L125.193 144.887Z" fill="white"/>
</g>
<path d="M205.104 50.2028C204.948 50.1368 204.813 50.0276 204.716 49.888C204.62 49.7484 204.565 49.5841 204.558 49.4143L204.364 44.9251C204.357 44.7856 204.383 44.6465 204.439 44.5187C204.496 44.3908 204.581 44.2779 204.688 44.1887C204.796 44.0995 204.923 44.0366 205.059 44.0049C205.195 43.9732 205.336 43.9736 205.472 44.006C205.847 44.0868 206.234 44.0903 206.61 44.0163C206.986 43.9423 207.343 43.7923 207.658 43.5755C207.949 43.3913 208.2 43.1495 208.393 42.865C208.587 42.5804 208.721 42.2592 208.786 41.9211C208.829 41.5787 208.804 41.231 208.711 40.8986C208.618 40.5662 208.459 40.2559 208.244 39.9861C208.017 39.679 207.732 39.4197 207.405 39.223C207.078 39.0263 206.715 38.896 206.338 38.8396C205.577 38.7973 204.823 39.013 204.2 39.452C203.577 39.8909 203.12 40.5274 202.903 41.2583C202.831 41.4798 202.676 41.6648 202.471 41.7749C202.265 41.885 202.026 41.9117 201.801 41.8493C201.577 41.787 201.385 41.6404 201.266 41.4402C201.147 41.24 201.109 41.0016 201.162 40.7746C201.491 39.6249 202.206 38.6236 203.186 37.9391C204.167 37.2546 205.353 36.9285 206.546 37.0158C207.167 37.0985 207.764 37.3052 208.304 37.6235C208.843 37.9417 209.313 38.3652 209.685 38.8686C210.048 39.3352 210.313 39.8697 210.465 40.4406C210.617 41.0114 210.653 41.607 210.571 42.192C210.461 42.7761 210.232 43.3316 209.9 43.8241C209.567 44.3166 209.137 44.7358 208.636 45.0557C207.91 45.5443 207.062 45.8208 206.188 45.8539L206.338 49.3176C206.343 49.4697 206.311 49.6209 206.242 49.7569C206.174 49.893 206.072 50.0096 205.947 50.096C205.821 50.1823 205.676 50.2356 205.525 50.2509C205.373 50.2662 205.22 50.243 205.08 50.1835L205.104 50.2028Z" fill="#FF725E"/>
<path d="M206.43 52.0425C206.44 52.1886 206.406 52.3344 206.334 52.4615C206.261 52.5886 206.152 52.6913 206.021 52.7566C205.89 52.8218 205.743 52.8467 205.597 52.8281C205.452 52.8095 205.316 52.7482 205.205 52.652C205.095 52.5559 205.015 52.4291 204.977 52.2877C204.939 52.1464 204.943 51.9969 204.99 51.8581C205.036 51.7193 205.123 51.5974 205.239 51.508C205.355 51.4185 205.495 51.3655 205.641 51.3556C205.738 51.3483 205.836 51.3604 205.928 51.3911C206.02 51.4218 206.105 51.4705 206.179 51.5344C206.252 51.5983 206.312 51.6761 206.355 51.7633C206.398 51.8505 206.424 51.9454 206.43 52.0425Z" fill="#FF725E"/>
<path d="M189.562 43.871C189.583 43.7753 189.597 43.6784 189.605 43.5808C189.605 43.3679 189.659 43.097 189.697 42.7149C189.745 42.2457 189.824 41.7802 189.934 41.3217C189.997 41.0508 190.031 40.7509 190.128 40.4461C190.225 40.1413 190.321 39.8124 190.428 39.4786C190.988 37.8248 191.804 36.2692 192.847 34.8685C194.213 33.0547 195.945 31.5484 197.931 30.447C199.061 29.8098 200.265 29.3127 201.515 28.9668C202.865 28.609 204.255 28.4269 205.651 28.425C206.387 28.4132 207.122 28.4519 207.852 28.5411C208.225 28.5798 208.592 28.6765 208.965 28.7394C209.342 28.8039 209.713 28.8944 210.078 29.0103C211.602 29.4364 213.053 30.0939 214.378 30.9598C217.325 32.8712 219.57 35.6899 220.773 38.99C221.421 40.7577 221.749 42.6268 221.741 44.5096C221.761 46.4491 221.418 48.3753 220.73 50.1888L220.512 50.7402L220.483 50.8128L220.512 50.8854C221.726 53.6766 222.931 56.4194 224.068 59.0752L224.271 58.843L217.015 56.0615L216.927 56.0276L216.855 56.0953C214.935 57.9552 212.585 59.3113 210.015 60.0427C207.818 60.6475 205.518 60.7795 203.267 60.4301C201.015 60.0807 198.864 59.2578 196.954 58.0158C195.389 56.9899 194.01 55.7059 192.876 54.2184C191.231 52.0473 190.166 49.4937 189.78 46.7977C189.722 46.314 189.673 45.9076 189.63 45.54C189.586 45.1723 189.63 44.8724 189.605 44.616C189.581 44.3596 189.605 44.1903 189.605 44.05C189.63 44.0464 189.651 44.0337 189.667 44.0146C189.682 43.9955 189.689 43.9714 189.687 43.9471C189.686 43.9228 189.675 43.9 189.657 43.8834C189.639 43.8668 189.615 43.8576 189.591 43.8576C189.566 43.8576 189.543 43.8668 189.525 43.8834C189.507 43.9 189.496 43.9228 189.494 43.9471C189.493 43.9714 189.5 43.9955 189.515 44.0146C189.53 44.0337 189.552 44.0464 189.576 44.05C189.576 44.1903 189.576 44.379 189.576 44.616C189.576 44.853 189.576 45.182 189.576 45.5496C189.576 45.9173 189.659 46.3381 189.707 46.8171C189.866 47.9806 190.143 49.1249 190.534 50.2323C191.088 51.6947 191.833 53.0774 192.75 54.3442C193.889 55.8581 195.278 57.1669 196.857 58.2141C198.79 59.4872 200.973 60.3345 203.259 60.6998C205.545 61.0651 207.882 60.9401 210.116 60.333C212.718 59.594 215.097 58.2249 217.044 56.3469L216.884 56.3807L224.14 59.1768L224.503 59.3171L224.343 58.9446C223.192 56.2888 222.002 53.5508 220.793 50.7548V50.895L221.015 50.3291C221.721 48.4761 222.072 46.5069 222.05 44.5241C222.066 42.6014 221.738 40.6913 221.083 38.8836C219.854 35.5178 217.559 32.6454 214.547 30.7034C213.189 29.8173 211.7 29.1482 210.136 28.7201C209.766 28.6029 209.387 28.514 209.004 28.454C208.626 28.3863 208.254 28.2895 207.877 28.2557C207.137 28.1638 206.392 28.1218 205.646 28.1299C204.228 28.1359 202.816 28.3278 201.448 28.7007C200.18 29.0606 198.961 29.5705 197.815 30.2197C195.809 31.348 194.066 32.8898 192.701 34.7427C191.662 36.1666 190.857 37.7474 190.317 39.4254C190.215 39.7737 190.118 40.1075 190.031 40.3929C189.954 40.6845 189.893 40.98 189.847 41.2781C189.744 41.7398 189.676 42.2089 189.644 42.681C189.615 43.0535 189.596 43.3389 189.581 43.5518C189.561 43.6569 189.554 43.7642 189.562 43.871Z" fill="#263238"/>
</svg>
