<svg width="40" height="40" viewBox="0 0 40 40" fill="none" xmlns="http://www.w3.org/2000/svg">
<path d="M38.7548 4.85001C38.9884 5.08431 39.1195 5.40166 39.1195 5.73251C39.1195 6.06335 38.9884 6.3807 38.7548 6.61501L36.1473 9.22501L31.1473 4.22501L33.7548 1.61501C33.9892 1.38067 34.3071 1.24902 34.6385 1.24902C34.97 1.24902 35.2879 1.38067 35.5223 1.61501L38.7548 4.84751V4.85001ZM34.3798 10.99L29.3798 5.99001L12.3473 23.025C12.2097 23.1626 12.1061 23.3304 12.0448 23.515L10.0323 29.55C9.99578 29.66 9.9906 29.778 10.0173 29.8908C10.044 30.0036 10.1016 30.1068 10.1835 30.1887C10.2655 30.2707 10.3687 30.3283 10.4815 30.355C10.5943 30.3817 10.7123 30.3765 10.8223 30.34L16.8573 28.3275C17.0417 28.2669 17.2095 28.1642 17.3473 28.0275L34.3798 10.99Z" fill="white"/>
<path fill-rule="evenodd" clip-rule="evenodd" d="M2.5 33.75C2.5 34.7446 2.89509 35.6984 3.59835 36.4016C4.30161 37.1049 5.25544 37.5 6.25 37.5H33.75C34.7446 37.5 35.6984 37.1049 36.4016 36.4016C37.1049 35.6984 37.5 34.7446 37.5 33.75V18.75C37.5 18.4185 37.3683 18.1005 37.1339 17.8661C36.8995 17.6317 36.5815 17.5 36.25 17.5C35.9185 17.5 35.6005 17.6317 35.3661 17.8661C35.1317 18.1005 35 18.4185 35 18.75V33.75C35 34.0815 34.8683 34.3995 34.6339 34.6339C34.3995 34.8683 34.0815 35 33.75 35H6.25C5.91848 35 5.60054 34.8683 5.36612 34.6339C5.1317 34.3995 5 34.0815 5 33.75V6.25C5 5.91848 5.1317 5.60054 5.36612 5.36612C5.60054 5.1317 5.91848 5 6.25 5H22.5C22.8315 5 23.1495 4.8683 23.3839 4.63388C23.6183 4.39946 23.75 4.08152 23.75 3.75C23.75 3.41848 23.6183 3.10054 23.3839 2.86612C23.1495 2.6317 22.8315 2.5 22.5 2.5H6.25C5.25544 2.5 4.30161 2.89509 3.59835 3.59835C2.89509 4.30161 2.5 5.25544 2.5 6.25V33.75Z" fill="white"/>
</svg>
